<?xml version="1.0" encoding="utf-8"?>
<!-- Generator: Adobe Illustrator 22.0.1, SVG Export Plug-In . SVG Version: 6.00 Build 0)  -->
<svg version="1.1" id="Layer_3" xmlns="http://www.w3.org/2000/svg" xmlns:xlink="http://www.w3.org/1999/xlink" x="0px" y="0px"
	 viewBox="0 0 64 64" style="enable-background:new 0 0 64 64;" xml:space="preserve">
<style type="text/css">
	.st0{fill:#FAF5F5;}
	.st1{fill:#63312D;}
	.st2{fill:#F9A287;}
	.st3{fill:#FCB7A4;}
	.st4{fill:#DB785A;}
	.st5{fill:#E0E0E0;}
	.st6{fill:#84DBFF;}
	.st7{fill:#EFC36A;}
	.st8{fill:#F9DD9D;}
	.st9{fill:#EEC26A;}
	.st10{fill:#A9EBFF;}
	.st11{fill:#52BADB;}
	.st12{fill:#FFFFFF;}
	.st13{fill:#F0EEEE;}
	.st14{fill:#BDBDBD;}
	.st15{fill:#E3DFDF;}
	.st16{fill:#FFE8BB;}
	.st17{fill:#FFF2D2;}
	.st18{fill:#D8C18F;}
	.st19{fill:#EAD194;}
	.st20{fill:#BFA064;}
	.st21{fill:#CCCCCC;}
	.st22{fill:#C5F1FF;}
	.st23{fill:#D3A553;}
	.st24{fill:#67C7E5;}
</style>
<g>
	<path class="st6" d="M46.533,21.677c-1.964,0.046-3.91,0.6-5.562,1.734c-2.964,2.035-4.269,5.546-4.506,9.024l-2.605,4.033
		c-0.293,0.453,0.033,1.051,0.572,1.051h1.503v4.905c0,1.168,0.947,2.115,2.115,2.115h5.3v3.081h8.474c0,0,0-5.433,0-5.44
		c0-0.086,1.163-0.754,1.266-0.835c4.143-3.252,5.822-9.838,3.223-14.537C54.433,23.409,50.3,21.588,46.533,21.677z"/>
	<g>
		<g>
			<g>
				<rect x="43.35" y="44.539" class="st10" width="1.757" height="3.081"/>
			</g>
			<g>
				<path class="st10" d="M37.692,42.424v-4.905h-1.503c-0.54,0-0.865-0.598-0.572-1.051l2.605-4.033
					c0.236-3.478,1.542-6.989,4.506-9.023c1.502-1.031,3.248-1.56,5.028-1.686c-0.409-0.034-0.819-0.057-1.223-0.048
					c-1.964,0.046-3.91,0.599-5.562,1.734c-2.964,2.035-4.269,5.546-4.506,9.023l-2.605,4.033c-0.293,0.453,0.033,1.051,0.572,1.051
					h1.503v4.905c0,1.168,0.947,2.115,2.115,2.115h1.757C38.639,44.539,37.692,43.592,37.692,42.424z"/>
			</g>
		</g>
	</g>
	<path class="st1" d="M51.824,48.119h-8.474c-0.276,0-0.5-0.224-0.5-0.5v-2.58h-4.8c-1.442,0-2.615-1.173-2.615-2.615v-4.405h-1.003
		c-0.433,0-0.83-0.236-1.037-0.616s-0.19-0.843,0.045-1.207l2.535-3.925c0.309-4.106,1.979-7.396,4.712-9.272
		c1.663-1.142,3.68-1.771,5.833-1.821l0,0c4.273-0.091,8.392,2.064,10.229,5.389c2.623,4.74,1.088,11.688-3.352,15.172
		c-0.036,0.028-0.194,0.129-0.396,0.251c-0.174,0.106-0.491,0.299-0.678,0.424v5.207C52.324,47.896,52.101,48.119,51.824,48.119z
		 M43.851,47.119h7.474v-4.94c0-0.34,0.177-0.447,1.158-1.045c0.146-0.089,0.265-0.16,0.309-0.19
		c4.066-3.192,5.483-9.558,3.084-13.894c-1.921-3.474-6.057-4.954-9.331-4.873l0,0c-1.959,0.046-3.788,0.615-5.29,1.646
		c-3.379,2.32-4.139,6.412-4.29,8.646c-0.006,0.084-0.033,0.166-0.079,0.237l-2.604,4.033c-0.051,0.079-0.026,0.15-0.007,0.186
		s0.065,0.095,0.159,0.095h1.503c0.276,0,0.5,0.224,0.5,0.5v4.905c0,0.891,0.725,1.615,1.615,1.615h5.3c0.276,0,0.5,0.224,0.5,0.5
		V47.119z"/>
	<path class="st11" d="M59.676,26.807c-1.88-3.399-6.013-5.22-9.78-5.131h-3.363c3.767-0.089,7.9,1.732,9.78,5.131
		c2.599,4.699,0.92,11.285-3.223,14.537c-0.103,0.081-1.266,0.749-1.266,0.835c0,0.008,0,5.44,0,5.44h3.363c0,0,0-5.433,0-5.44
		c0-0.086,1.163-0.754,1.266-0.835C60.596,38.092,62.275,31.506,59.676,26.807z"/>
	<path class="st1" d="M55.188,48.119h-3.363c-0.276,0-0.5-0.224-0.5-0.5v-5.44c0-0.34,0.177-0.447,1.158-1.045
		c0.146-0.089,0.265-0.16,0.309-0.19c4.066-3.192,5.483-9.558,3.084-13.894c-1.825-3.3-5.663-4.798-8.838-4.873h-0.505
		c-0.273,0-0.497-0.221-0.5-0.494s0.215-0.499,0.488-0.506c0.189-0.005,0.378-0.005,0.569,0h2.806
		c4.303-0.085,8.38,2.064,10.218,5.389c2.622,4.739,1.088,11.688-3.352,15.172c-0.036,0.028-0.194,0.129-0.396,0.251
		c-0.174,0.106-0.491,0.299-0.678,0.424v5.207C55.688,47.896,55.464,48.119,55.188,48.119z M52.324,47.119h2.363v-4.94
		c0-0.34,0.177-0.447,1.158-1.045c0.146-0.089,0.265-0.16,0.309-0.19c4.066-3.192,5.482-9.559,3.084-13.894l0,0
		c-1.518-2.743-4.426-4.241-7.188-4.712c2.016,0.944,3.695,2.413,4.699,4.228c2.623,4.74,1.088,11.688-3.352,15.172
		c-0.036,0.028-0.194,0.129-0.396,0.251c-0.174,0.106-0.491,0.299-0.678,0.424V47.119z"/>
	<path class="st2" d="M14.104,21.677c1.964,0.046,3.91,0.6,5.562,1.734c2.964,2.035,4.269,5.546,4.506,9.024l2.605,4.033
		c0.293,0.453-0.033,1.051-0.572,1.051h-1.503v4.905c0,1.168-0.947,2.115-2.115,2.115h-5.3v3.081H8.813c0,0,0-5.433,0-5.44
		c0-0.086-1.163-0.754-1.266-0.835c-4.143-3.252-5.822-9.838-3.223-14.537C6.204,23.409,10.337,21.588,14.104,21.677z"/>
	<path class="st3" d="M9.16,41.344c-4.143-3.252-5.822-9.838-3.223-14.537c1.695-3.064,5.219-4.831,8.657-5.087
		c-0.164-0.011-0.326-0.04-0.49-0.044c-3.767-0.089-7.9,1.732-9.78,5.131c-2.599,4.699-0.92,11.285,3.223,14.537
		c0.103,0.081,1.266,0.749,1.266,0.835c0,0.008,0,5.44,0,5.44h1.613c0,0,0-5.433,0-5.44C10.426,42.093,9.263,41.425,9.16,41.344z"/>
	<path class="st1" d="M17.287,48.119H8.813c-0.276,0-0.5-0.224-0.5-0.5v-5.207c-0.187-0.125-0.504-0.317-0.678-0.424
		c-0.202-0.122-0.36-0.223-0.398-0.252c-4.438-3.483-5.972-10.432-3.35-15.171c1.838-3.324,5.94-5.478,10.229-5.389
		c2.154,0.051,4.171,0.681,5.833,1.821c2.732,1.876,4.403,5.165,4.712,9.272l2.535,3.925c0.235,0.364,0.252,0.827,0.045,1.207
		s-0.604,0.616-1.037,0.616h-1.003v4.405c0,1.442-1.173,2.615-2.614,2.615h-4.8v2.58C17.787,47.896,17.564,48.119,17.287,48.119z
		 M9.313,47.119h7.475v-2.58c0-0.276,0.224-0.5,0.5-0.5h5.3c0.89,0,1.614-0.725,1.614-1.615v-4.905c0-0.276,0.224-0.5,0.5-0.5h1.503
		c0.094,0,0.14-0.06,0.159-0.095s0.044-0.106-0.007-0.186l-2.604-4.033c-0.046-0.071-0.073-0.153-0.079-0.237
		c-0.151-2.233-0.911-6.326-4.29-8.646c-1.501-1.03-3.331-1.6-5.29-1.646l0,0c-3.222-0.084-7.41,1.399-9.331,4.873
		c-2.398,4.335-0.982,10.701,3.094,13.9c0.034,0.023,0.153,0.095,0.299,0.184c0.981,0.598,1.158,0.705,1.158,1.045V47.119z"/>
	<g>
		<rect x="17.287" y="44.539" class="st4" width="3.279" height="3.081"/>
		<path class="st4" d="M30.056,36.467l-2.605-4.033c-0.236-3.478-1.542-6.989-4.506-9.023c-1.652-1.134-3.598-1.687-5.562-1.734
			h-3.279c1.964,0.046,3.91,0.599,5.562,1.734c2.964,2.035,4.269,5.546,4.505,9.023l2.605,4.033
			c0.293,0.453-0.033,1.051-0.572,1.051h-1.503v4.905c0,1.168-0.947,2.115-2.115,2.115h3.279c1.168,0,2.115-0.947,2.115-2.115
			v-4.905h1.503C30.023,37.518,30.349,36.921,30.056,36.467z"/>
	</g>
	<g>
		<path class="st1" d="M20.565,48.119h-3.278c-0.276,0-0.5-0.224-0.5-0.5v-3.08c0-0.276,0.224-0.5,0.5-0.5h3.278
			c0.276,0,0.5,0.224,0.5,0.5v3.08C21.065,47.896,20.842,48.119,20.565,48.119z M17.787,47.119h2.278v-2.08h-2.278V47.119z"/>
		<path class="st1" d="M25.865,45.039h-3.278c-0.276,0-0.5-0.224-0.5-0.5s0.224-0.5,0.5-0.5c0.89,0,1.614-0.725,1.614-1.615v-4.905
			c0-0.276,0.224-0.5,0.5-0.5h1.503c0.094,0,0.14-0.06,0.159-0.095s0.044-0.106-0.007-0.186l-2.604-4.033
			c-0.046-0.071-0.073-0.153-0.079-0.237c-0.151-2.233-0.911-6.326-4.29-8.646c-1.501-1.031-3.331-1.6-5.29-1.646
			c-0.273-0.007-0.491-0.232-0.488-0.506s0.227-0.494,0.5-0.494h3.279c2.165,0.051,4.182,0.68,5.845,1.821
			c2.732,1.877,4.403,5.166,4.712,9.272l2.535,3.925l0,0c0.235,0.364,0.252,0.827,0.045,1.207s-0.604,0.616-1.037,0.616h-1.003
			v4.405C28.481,43.866,27.308,45.039,25.865,45.039z M24.642,44.039h1.224c0.891,0,1.615-0.725,1.615-1.615v-4.905
			c0-0.276,0.224-0.5,0.5-0.5h1.503c0.094,0,0.14-0.06,0.159-0.095s0.044-0.106-0.007-0.186l-2.604-4.033
			c-0.046-0.071-0.073-0.153-0.079-0.237c-0.151-2.233-0.911-6.325-4.29-8.646c-1.14-0.782-2.468-1.299-3.898-1.522
			c0.412,0.206,0.808,0.438,1.186,0.698c2.732,1.876,4.403,5.165,4.712,9.271l2.535,3.926c0.235,0.364,0.252,0.827,0.045,1.207
			s-0.604,0.616-1.037,0.616h-1.003v4.405C25.201,43.033,24.992,43.594,24.642,44.039z"/>
	</g>
	<rect x="29.03" y="24.409" class="st1" width="5.514" height="1"/>
	<path class="st1" d="M33.598,27.04l-0.717-0.697l1.392-1.434l-1.392-1.434l0.717-0.697l1.73,1.782c0.188,0.194,0.188,0.503,0,0.697
		L33.598,27.04z"/>
	<rect x="29.456" y="28.229" class="st1" width="5.514" height="1"/>
	<path class="st1" d="M30.402,30.86l-1.73-1.782c-0.188-0.194-0.188-0.503,0-0.697l1.73-1.782l0.717,0.697l-1.392,1.434l1.392,1.434
		L30.402,30.86z"/>
	<circle class="st8" cx="11.583" cy="28.593" r="2.359"/>
	<path class="st1" d="M11.583,31.452c-1.576,0-2.859-1.283-2.859-2.859s1.283-2.859,2.859-2.859s2.859,1.283,2.859,2.859
		S13.159,31.452,11.583,31.452z M11.583,26.733c-1.025,0-1.859,0.834-1.859,1.859s0.834,1.859,1.859,1.859s1.859-0.834,1.859-1.859
		S12.608,26.733,11.583,26.733z"/>
	<circle class="st8" cx="18.275" cy="28.593" r="2.359"/>
	<path class="st1" d="M18.274,31.452c-1.576,0-2.859-1.283-2.859-2.859s1.283-2.859,2.859-2.859s2.859,1.283,2.859,2.859
		S19.851,31.452,18.274,31.452z M18.274,26.733c-1.025,0-1.859,0.834-1.859,1.859s0.834,1.859,1.859,1.859s1.859-0.834,1.859-1.859
		S19.3,26.733,18.274,26.733z"/>
	<circle class="st8" cx="24.945" cy="28.593" r="2.359"/>
	<path class="st1" d="M24.945,31.452c-1.576,0-2.859-1.283-2.859-2.859s1.283-2.859,2.859-2.859s2.859,1.283,2.859,2.859
		S26.522,31.452,24.945,31.452z M24.945,26.733c-1.025,0-1.859,0.834-1.859,1.859s0.834,1.859,1.859,1.859s1.859-0.834,1.859-1.859
		S25.971,26.733,24.945,26.733z"/>
	<circle class="st8" cx="38.499" cy="28.593" r="2.359"/>
	<path class="st1" d="M38.499,31.452c-1.576,0-2.859-1.283-2.859-2.859s1.283-2.859,2.859-2.859s2.859,1.283,2.859,2.859
		S40.075,31.452,38.499,31.452z M38.499,26.733c-1.025,0-1.859,0.834-1.859,1.859s0.834,1.859,1.859,1.859s1.859-0.834,1.859-1.859
		S39.524,26.733,38.499,26.733z"/>
	<circle class="st8" cx="45.194" cy="28.593" r="2.359"/>
	<path class="st1" d="M45.193,31.452c-1.576,0-2.859-1.283-2.859-2.859s1.283-2.859,2.859-2.859s2.859,1.283,2.859,2.859
		S46.77,31.452,45.193,31.452z M45.193,26.733c-1.025,0-1.859,0.834-1.859,1.859s0.834,1.859,1.859,1.859s1.859-0.834,1.859-1.859
		S46.219,26.733,45.193,26.733z"/>
	<g>
		<rect x="14.871" y="20.262" class="st1" width="1" height="1"/>
		<path class="st1" d="M15.871,17.381h-1v-1c0-0.276,0.224-0.5,0.5-0.5h1v1h-0.5V17.381z"/>
		<path class="st1" d="M44.771,16.881h-2.028v-1h2.028V16.881z M40.714,16.881h-2.029v-1h2.029V16.881z M36.656,16.881h-2.028v-1
			h2.028V16.881z M32.6,16.881H30.57v-1H32.6V16.881z M28.542,16.881h-2.028v-1h2.028V16.881z M24.485,16.881h-2.029v-1h2.029
			V16.881z M20.428,16.881h-2.028v-1h2.028V16.881z"/>
		<path class="st1" d="M48.299,17.381h-1v-0.5h-0.5v-1h1c0.276,0,0.5,0.224,0.5,0.5V17.381z"/>
		<rect x="47.299" y="20.262" class="st1" width="1" height="1"/>
	</g>
</g>
</svg>
