<?xml version="1.0" encoding="iso-8859-1"?>
<!-- Uploaded to: SVG Repo, www.svgrepo.com, Generator: SVG Repo Mixer Tools -->
<!DOCTYPE svg PUBLIC "-//W3C//DTD SVG 1.1//EN" "http://www.w3.org/Graphics/SVG/1.1/DTD/svg11.dtd">
<svg fill="#000000" version="1.1" id="Capa_1" xmlns="http://www.w3.org/2000/svg" xmlns:xlink="http://www.w3.org/1999/xlink" 
	 width="800px" height="800px" viewBox="0 0 575.279 575.279"
	 xml:space="preserve">
<g>
	<g>
		<path d="M287.643,575.279c59.799,0,112.987-28.803,146.448-73.256c22.791-30.484,36.289-68.324,36.289-109.314
			c0-42.521-14.562-81.617-38.92-112.664c-1.497-1.907-3.021-3.786-4.591-5.63c-10.187-11.977-21.882-22.617-34.807-31.634
			c-1.515-1.056-3.045-2.09-4.591-3.1c-28.702-18.764-62.98-29.709-99.832-29.709s-71.13,10.946-99.833,29.709
			c-1.545,1.01-3.075,2.044-4.59,3.1c-12.926,9.018-24.621,19.657-34.808,31.634c-1.57,1.845-3.094,3.724-4.59,5.63
			c-24.357,31.046-38.92,70.144-38.92,112.666c0,40.992,13.498,78.83,36.289,109.312
			C174.652,546.477,227.844,575.279,287.643,575.279z M267.03,290c1.769-0.355,3.207-2.054,3.207-3.856V273.5
			c0-1.802,1.459-3.262,3.262-3.262h28.281c1.802,0,3.262,1.463,3.262,3.262v12.644c0,1.802,1.441,3.5,3.21,3.856
			c47.739,9.564,83.811,51.49,83.811,102.062c0,57.65-46.772,104.422-104.423,104.422c-57.669,0-104.422-46.771-104.422-104.422
			C183.22,341.486,219.276,299.564,267.03,290z"/>
		<path d="M387.476,218.251c1.532,0.881,3.081,1.738,4.59,2.656c12.586,7.677,24.231,16.735,34.808,26.9
			c1.551,1.493,3.087,2.996,4.59,4.538c1.548,1.585,3.094,3.176,4.59,4.813V148.41C436.053,66.577,369.477,0,287.643,0
			c-81.833,0-148.41,66.577-148.41,148.41v108.75c1.497-1.637,3.042-3.229,4.59-4.813c1.502-1.539,3.039-3.045,4.59-4.538
			c10.575-10.166,22.222-19.223,34.808-26.9c1.508-0.921,3.057-1.778,4.59-2.656c1.527-0.875,3.039-1.771,4.59-2.607V148.41
			c0-52.516,42.727-95.243,95.243-95.243s95.242,42.727,95.242,95.243v67.231C384.437,216.48,385.948,217.374,387.476,218.251z"/>
		<path d="M287.643,444.275c28.825,0,52.21-23.387,52.21-52.209c0-21.553-13.137-39.859-31.77-47.826
			c-1.658-0.707-3.038-2.648-3.038-4.451v-14.074c0-1.801-1.46-3.262-3.262-3.262h-28.281c-1.802,0-3.262,1.463-3.262,3.262v14.074
			c0,1.803-1.38,3.744-3.039,4.451c-18.632,7.969-31.769,26.273-31.769,47.828C235.43,420.889,258.817,444.275,287.643,444.275z"/>
	</g>
</g>
</svg>