<?xml version="1.0" encoding="iso-8859-1"?>
<!-- Uploaded to: SVG Repo, www.svgrepo.com, Generator: SVG Repo Mixer Tools -->
<svg fill="#000000" height="800px" width="800px" version="1.1" id="Layer_1" xmlns="http://www.w3.org/2000/svg" xmlns:xlink="http://www.w3.org/1999/xlink" 
	 viewBox="0 0 512 512" xml:space="preserve">
<g>
	<g>
		<path d="M8.533,102.4C3.814,102.4,0,106.214,0,110.933V256c0,4.719,3.814,8.533,8.533,8.533s8.533-3.814,8.533-8.533V110.933
			C17.067,106.214,13.252,102.4,8.533,102.4z"/>
	</g>
</g>
<g>
	<g>
		<path d="M503.467,102.4c-4.719,0-8.533,3.814-8.533,8.533V256c0,4.719,3.814,8.533,8.533,8.533c4.719,0,8.533-3.814,8.533-8.533
			V110.933C512,106.214,508.186,102.4,503.467,102.4z"/>
	</g>
</g>
<g>
	<g>
		<path d="M507.733,290.133h-34.125c-2.355,0-4.267,1.911-4.267,4.267l0.009,21.325c0,4.719-3.814,8.542-8.533,8.542
			c-4.71,0-8.533-3.814-8.533-8.525l-0.009-21.342c0-2.355-1.911-4.267-4.267-4.267h-25.6c-2.355,0-4.267,1.911-4.267,4.267
			l0.008,38.4c0,4.71-3.814,8.533-8.533,8.533c-4.71,0-8.533-3.814-8.533-8.533l-0.017-38.4c0-2.355-1.911-4.267-4.267-4.267h-25.6
			c-2.355,0-4.267,1.911-4.267,4.267l0.009,21.333c0,4.71-3.814,8.533-8.533,8.533c-4.71,0-8.533-3.814-8.533-8.533l-0.008-21.333
			c0-2.355-1.911-4.267-4.267-4.267H320c-2.355,0-4.267,1.911-4.267,4.267l0.009,38.4c0,4.71-3.814,8.533-8.533,8.533
			c-4.71,0-8.533-3.814-8.533-8.533l-0.009-38.4c0-2.355-1.911-4.267-4.267-4.267h-25.6c-2.355,0-4.267,1.911-4.267,4.267
			l0.009,21.333c0,4.71-3.814,8.533-8.533,8.533c-4.71,0-8.533-3.814-8.533-8.533l-0.009-21.333c0-2.355-1.911-4.267-4.267-4.267
			h-25.6c-2.355,0-4.267,1.911-4.267,4.267l0.008,38.4c0,4.71-3.814,8.533-8.533,8.533c-4.71,0-8.533-3.814-8.533-8.533l-0.009-38.4
			c0-2.355-1.911-4.267-4.267-4.267h-25.6c-2.355,0-4.267,1.911-4.267,4.267l0.008,21.333c0,4.71-3.814,8.533-8.533,8.533
			c-4.71,0-8.533-3.814-8.533-8.533l-0.009-21.333c0-2.355-1.911-4.267-4.267-4.267h-25.6c-2.355,0-4.267,1.911-4.267,4.267
			l0.009,38.4c0,4.71-3.814,8.533-8.533,8.533c-4.71,0-8.533-3.814-8.533-8.533l-0.008-38.4c0-2.355-1.911-4.267-4.267-4.267H64
			c-2.355,0-4.267,1.911-4.267,4.267v21.333c0,4.719-3.814,8.533-8.533,8.533s-8.533-3.814-8.533-8.533V294.4
			c0-2.355-1.911-4.267-4.267-4.267H4.267C1.911,290.133,0,292.045,0,294.4v110.933c0,2.355,1.911,4.267,4.267,4.267h503.467
			c2.355,0,4.267-1.911,4.267-4.267V294.4C512,292.045,510.089,290.133,507.733,290.133z"/>
	</g>
</g>
<g>
	<g>
		<path d="M476.032,182.263l-39.62-51.2c-2.142-2.765-5.658-3.763-8.789-2.56c-3.132,1.229-5.222,4.437-5.222,8.03V179.2H89.6
			v-42.675c0-3.593-2.091-6.801-5.222-8.021c-3.132-1.22-6.639-0.213-8.789,2.56l-39.62,51.208c-1.22,1.579-1.835,3.524-1.835,5.461
			s0.614,3.883,1.835,5.47l39.62,51.2c1.536,1.98,3.78,3.063,6.084,3.063c0.905,0,1.818-0.171,2.697-0.512
			c3.132-1.229,5.222-4.437,5.222-8.021v-42.667h332.8v42.667c0,3.593,2.091,6.801,5.222,8.021c0.879,0.341,1.792,0.512,2.697,0.512
			c2.304,0,4.548-1.084,6.093-3.063l39.62-51.2c1.229-1.587,1.843-3.524,1.843-5.47S477.252,183.851,476.032,182.263z"/>
	</g>
</g>
</svg>