<?xml version="1.0" encoding="iso-8859-1"?>
<!-- Uploaded to: SVG Repo, www.svgrepo.com, Generator: SVG Repo Mixer Tools -->
<!DOCTYPE svg PUBLIC "-//W3C//DTD SVG 1.1//EN" "http://www.w3.org/Graphics/SVG/1.1/DTD/svg11.dtd">
<svg fill="#000000" version="1.1" id="Capa_1" xmlns="http://www.w3.org/2000/svg" xmlns:xlink="http://www.w3.org/1999/xlink" 
	 width="800px" height="800px" viewBox="0 0 46.583 46.583"
	 xml:space="preserve">
<g>
	<path d="M34.291,22.659V10.878C34.291,4.866,29.38,0,23.368,0h-0.22C17.16,0,12.289,4.848,12.289,10.835v0.478
		c0,1.199,0.99,2.162,2.19,2.162h0.044c1.199,0,2.182-0.963,2.182-2.162v-0.434c0-3.588,2.899-6.463,6.487-6.463h0.176
		c3.586,0,6.506,2.875,6.506,6.462v8.328c-1.979-1.011-4.219-1.581-6.589-1.581c-7.996,0-14.481,6.482-14.481,14.479
		s6.481,14.479,14.478,14.479c7.997,0,14.497-6.481,14.497-14.479C37.777,28.494,36.422,25.193,34.291,22.659z M23.28,36.172
		c-2.247,0-4.068-1.82-4.068-4.066c0-2.248,1.821-4.068,4.068-4.068c2.247,0,4.067,1.82,4.067,4.068
		C27.348,34.35,25.527,36.172,23.28,36.172z"/>
</g>
</svg>