<?xml version="1.0" encoding="utf-8" standalone="no"?>
<!DOCTYPE svg PUBLIC "-//W3C//DTD SVG 1.1//EN"
  "http://www.w3.org/Graphics/SVG/1.1/DTD/svg11.dtd">
<svg xmlns:xlink="http://www.w3.org/1999/xlink" width="701.6pt" height="311.0225pt" viewBox="0 0 701.6 311.0225" xmlns="http://www.w3.org/2000/svg" version="1.1">
 <metadata>
  <rdf:RDF xmlns:dc="http://purl.org/dc/elements/1.1/" xmlns:cc="http://creativecommons.org/ns#" xmlns:rdf="http://www.w3.org/1999/02/22-rdf-syntax-ns#">
   <cc:Work>
    <dc:type rdf:resource="http://purl.org/dc/dcmitype/StillImage"/>
    <dc:date>2026-02-24T17:04:50.902820</dc:date>
    <dc:format>image/svg+xml</dc:format>
    <dc:creator>
     <cc:Agent>
      <dc:title>Matplotlib v3.10.8, https://matplotlib.org/</dc:title>
     </cc:Agent>
    </dc:creator>
   </cc:Work>
  </rdf:RDF>
 </metadata>
 <defs>
  <style type="text/css">*{stroke-linejoin: round; stroke-linecap: butt}</style>
 </defs>
 <g id="figure_1">
  <g id="patch_1">
   <path d="M 0 311.0225 
L 701.6 311.0225 
L 701.6 0 
L 0 0 
z
" style="fill: #ffffff"/>
  </g>
  <g id="axes_1">
   <g id="patch_2">
    <path d="M 82.8 289.08 
L 166.083582 289.08 
L 166.083582 39.6 
L 82.8 39.6 
z
" style="fill: #ffffff"/>
   </g>
   <g id="patch_3">
    <path d="M 86.585617 289.08 
L 120.23555 289.08 
L 120.23555 51.48 
L 86.585617 51.48 
z
" clip-path="url(#p71f706a728)" style="fill: #1f78b4"/>
   </g>
   <g id="patch_4">
    <path d="M 128.648033 289.08 
L 162.297965 289.08 
L 162.297965 243.494252 
L 128.648033 243.494252 
z
" clip-path="url(#p71f706a728)" style="fill: #e31a1c"/>
   </g>
   <g id="matplotlib.axis_1">
    <g id="xtick_1">
     <g id="line2d_1">
      <defs>
       <path id="me04f3b39d0" d="M 0 0 
L 0 3.5 
" style="stroke: #000000; stroke-width: 0.6"/>
      </defs>
      <g>
       <use xlink:href="#me04f3b39d0" x="103.410583" y="289.08" style="stroke: #000000; stroke-width: 0.6"/>
      </g>
     </g>
     <g id="text_1">
      <!-- Nansha -->
      <g transform="translate(88.361833 302.15875) scale(0.08 -0.08)">
       <defs>
        <path id="DejaVuSans-4e" d="M 628 4666 
L 1478 4666 
L 3547 763 
L 3547 4666 
L 4159 4666 
L 4159 0 
L 3309 0 
L 1241 3903 
L 1241 0 
L 628 0 
L 628 4666 
z
" transform="scale(0.015625)"/>
        <path id="DejaVuSans-61" d="M 2194 1759 
Q 1497 1759 1228 1600 
Q 959 1441 959 1056 
Q 959 750 1161 570 
Q 1363 391 1709 391 
Q 2188 391 2477 730 
Q 2766 1069 2766 1631 
L 2766 1759 
L 2194 1759 
z
M 3341 1997 
L 3341 0 
L 2766 0 
L 2766 531 
Q 2569 213 2275 61 
Q 1981 -91 1556 -91 
Q 1019 -91 701 211 
Q 384 513 384 1019 
Q 384 1609 779 1909 
Q 1175 2209 1959 2209 
L 2766 2209 
L 2766 2266 
Q 2766 2663 2505 2880 
Q 2244 3097 1772 3097 
Q 1472 3097 1187 3025 
Q 903 2953 641 2809 
L 641 3341 
Q 956 3463 1253 3523 
Q 1550 3584 1831 3584 
Q 2591 3584 2966 3190 
Q 3341 2797 3341 1997 
z
" transform="scale(0.015625)"/>
        <path id="DejaVuSans-6e" d="M 3513 2113 
L 3513 0 
L 2938 0 
L 2938 2094 
Q 2938 2591 2744 2837 
Q 2550 3084 2163 3084 
Q 1697 3084 1428 2787 
Q 1159 2491 1159 1978 
L 1159 0 
L 581 0 
L 581 3500 
L 1159 3500 
L 1159 2956 
Q 1366 3272 1645 3428 
Q 1925 3584 2291 3584 
Q 2894 3584 3203 3211 
Q 3513 2838 3513 2113 
z
" transform="scale(0.015625)"/>
        <path id="DejaVuSans-73" d="M 2834 3397 
L 2834 2853 
Q 2591 2978 2328 3040 
Q 2066 3103 1784 3103 
Q 1356 3103 1142 2972 
Q 928 2841 928 2578 
Q 928 2378 1081 2264 
Q 1234 2150 1697 2047 
L 1894 2003 
Q 2506 1872 2764 1633 
Q 3022 1394 3022 966 
Q 3022 478 2636 193 
Q 2250 -91 1575 -91 
Q 1294 -91 989 -36 
Q 684 19 347 128 
L 347 722 
Q 666 556 975 473 
Q 1284 391 1588 391 
Q 1994 391 2212 530 
Q 2431 669 2431 922 
Q 2431 1156 2273 1281 
Q 2116 1406 1581 1522 
L 1381 1569 
Q 847 1681 609 1914 
Q 372 2147 372 2553 
Q 372 3047 722 3315 
Q 1072 3584 1716 3584 
Q 2034 3584 2315 3537 
Q 2597 3491 2834 3397 
z
" transform="scale(0.015625)"/>
        <path id="DejaVuSans-68" d="M 3513 2113 
L 3513 0 
L 2938 0 
L 2938 2094 
Q 2938 2591 2744 2837 
Q 2550 3084 2163 3084 
Q 1697 3084 1428 2787 
Q 1159 2491 1159 1978 
L 1159 0 
L 581 0 
L 581 4863 
L 1159 4863 
L 1159 2956 
Q 1366 3272 1645 3428 
Q 1925 3584 2291 3584 
Q 2894 3584 3203 3211 
Q 3513 2838 3513 2113 
z
" transform="scale(0.015625)"/>
       </defs>
       <use xlink:href="#DejaVuSans-4e"/>
       <use xlink:href="#DejaVuSans-61" transform="translate(74.804688 0)"/>
       <use xlink:href="#DejaVuSans-6e" transform="translate(136.083984 0)"/>
       <use xlink:href="#DejaVuSans-73" transform="translate(199.462891 0)"/>
       <use xlink:href="#DejaVuSans-68" transform="translate(251.5625 0)"/>
       <use xlink:href="#DejaVuSans-61" transform="translate(314.941406 0)"/>
      </g>
     </g>
    </g>
    <g id="xtick_2">
     <g id="line2d_2">
      <g>
       <use xlink:href="#me04f3b39d0" x="145.472999" y="289.08" style="stroke: #000000; stroke-width: 0.6"/>
      </g>
     </g>
     <g id="text_2">
      <!-- Zhongshan -->
      <g transform="translate(123.071124 302.15875) scale(0.08 -0.08)">
       <defs>
        <path id="DejaVuSans-5a" d="M 359 4666 
L 4025 4666 
L 4025 4184 
L 1075 531 
L 4097 531 
L 4097 0 
L 288 0 
L 288 481 
L 3238 4134 
L 359 4134 
L 359 4666 
z
" transform="scale(0.015625)"/>
        <path id="DejaVuSans-6f" d="M 1959 3097 
Q 1497 3097 1228 2736 
Q 959 2375 959 1747 
Q 959 1119 1226 758 
Q 1494 397 1959 397 
Q 2419 397 2687 759 
Q 2956 1122 2956 1747 
Q 2956 2369 2687 2733 
Q 2419 3097 1959 3097 
z
M 1959 3584 
Q 2709 3584 3137 3096 
Q 3566 2609 3566 1747 
Q 3566 888 3137 398 
Q 2709 -91 1959 -91 
Q 1206 -91 779 398 
Q 353 888 353 1747 
Q 353 2609 779 3096 
Q 1206 3584 1959 3584 
z
" transform="scale(0.015625)"/>
        <path id="DejaVuSans-67" d="M 2906 1791 
Q 2906 2416 2648 2759 
Q 2391 3103 1925 3103 
Q 1463 3103 1205 2759 
Q 947 2416 947 1791 
Q 947 1169 1205 825 
Q 1463 481 1925 481 
Q 2391 481 2648 825 
Q 2906 1169 2906 1791 
z
M 3481 434 
Q 3481 -459 3084 -895 
Q 2688 -1331 1869 -1331 
Q 1566 -1331 1297 -1286 
Q 1028 -1241 775 -1147 
L 775 -588 
Q 1028 -725 1275 -790 
Q 1522 -856 1778 -856 
Q 2344 -856 2625 -561 
Q 2906 -266 2906 331 
L 2906 616 
Q 2728 306 2450 153 
Q 2172 0 1784 0 
Q 1141 0 747 490 
Q 353 981 353 1791 
Q 353 2603 747 3093 
Q 1141 3584 1784 3584 
Q 2172 3584 2450 3431 
Q 2728 3278 2906 2969 
L 2906 3500 
L 3481 3500 
L 3481 434 
z
" transform="scale(0.015625)"/>
       </defs>
       <use xlink:href="#DejaVuSans-5a"/>
       <use xlink:href="#DejaVuSans-68" transform="translate(68.505859 0)"/>
       <use xlink:href="#DejaVuSans-6f" transform="translate(131.884766 0)"/>
       <use xlink:href="#DejaVuSans-6e" transform="translate(193.066406 0)"/>
       <use xlink:href="#DejaVuSans-67" transform="translate(256.445312 0)"/>
       <use xlink:href="#DejaVuSans-73" transform="translate(319.921875 0)"/>
       <use xlink:href="#DejaVuSans-68" transform="translate(372.021484 0)"/>
       <use xlink:href="#DejaVuSans-61" transform="translate(435.400391 0)"/>
       <use xlink:href="#DejaVuSans-6e" transform="translate(496.679688 0)"/>
      </g>
     </g>
    </g>
   </g>
   <g id="matplotlib.axis_2">
    <g id="ytick_1">
     <g id="line2d_3">
      <defs>
       <path id="mf06beb2fec" d="M 0 0 
L -3.5 0 
" style="stroke: #000000; stroke-width: 0.6"/>
      </defs>
      <g>
       <use xlink:href="#mf06beb2fec" x="82.8" y="289.08" style="stroke: #000000; stroke-width: 0.6"/>
      </g>
     </g>
     <g id="text_3">
      <!-- 0 -->
      <g transform="translate(70.71 292.119375) scale(0.08 -0.08)">
       <defs>
        <path id="DejaVuSans-30" d="M 2034 4250 
Q 1547 4250 1301 3770 
Q 1056 3291 1056 2328 
Q 1056 1369 1301 889 
Q 1547 409 2034 409 
Q 2525 409 2770 889 
Q 3016 1369 3016 2328 
Q 3016 3291 2770 3770 
Q 2525 4250 2034 4250 
z
M 2034 4750 
Q 2819 4750 3233 4129 
Q 3647 3509 3647 2328 
Q 3647 1150 3233 529 
Q 2819 -91 2034 -91 
Q 1250 -91 836 529 
Q 422 1150 422 2328 
Q 422 3509 836 4129 
Q 1250 4750 2034 4750 
z
" transform="scale(0.015625)"/>
       </defs>
       <use xlink:href="#DejaVuSans-30"/>
      </g>
     </g>
    </g>
    <g id="ytick_2">
     <g id="line2d_4">
      <g>
       <use xlink:href="#mf06beb2fec" x="82.8" y="237.826362" style="stroke: #000000; stroke-width: 0.6"/>
      </g>
     </g>
     <g id="text_4">
      <!-- 2 -->
      <g transform="translate(70.71 240.865737) scale(0.08 -0.08)">
       <defs>
        <path id="DejaVuSans-32" d="M 1228 531 
L 3431 531 
L 3431 0 
L 469 0 
L 469 531 
Q 828 903 1448 1529 
Q 2069 2156 2228 2338 
Q 2531 2678 2651 2914 
Q 2772 3150 2772 3378 
Q 2772 3750 2511 3984 
Q 2250 4219 1831 4219 
Q 1534 4219 1204 4116 
Q 875 4013 500 3803 
L 500 4441 
Q 881 4594 1212 4672 
Q 1544 4750 1819 4750 
Q 2544 4750 2975 4387 
Q 3406 4025 3406 3419 
Q 3406 3131 3298 2873 
Q 3191 2616 2906 2266 
Q 2828 2175 2409 1742 
Q 1991 1309 1228 531 
z
" transform="scale(0.015625)"/>
       </defs>
       <use xlink:href="#DejaVuSans-32"/>
      </g>
     </g>
    </g>
    <g id="ytick_3">
     <g id="line2d_5">
      <g>
       <use xlink:href="#mf06beb2fec" x="82.8" y="186.572724" style="stroke: #000000; stroke-width: 0.6"/>
      </g>
     </g>
     <g id="text_5">
      <!-- 4 -->
      <g transform="translate(70.71 189.612099) scale(0.08 -0.08)">
       <defs>
        <path id="DejaVuSans-34" d="M 2419 4116 
L 825 1625 
L 2419 1625 
L 2419 4116 
z
M 2253 4666 
L 3047 4666 
L 3047 1625 
L 3713 1625 
L 3713 1100 
L 3047 1100 
L 3047 0 
L 2419 0 
L 2419 1100 
L 313 1100 
L 313 1709 
L 2253 4666 
z
" transform="scale(0.015625)"/>
       </defs>
       <use xlink:href="#DejaVuSans-34"/>
      </g>
     </g>
    </g>
    <g id="ytick_4">
     <g id="line2d_6">
      <g>
       <use xlink:href="#mf06beb2fec" x="82.8" y="135.319086" style="stroke: #000000; stroke-width: 0.6"/>
      </g>
     </g>
     <g id="text_6">
      <!-- 6 -->
      <g transform="translate(70.71 138.358461) scale(0.08 -0.08)">
       <defs>
        <path id="DejaVuSans-36" d="M 2113 2584 
Q 1688 2584 1439 2293 
Q 1191 2003 1191 1497 
Q 1191 994 1439 701 
Q 1688 409 2113 409 
Q 2538 409 2786 701 
Q 3034 994 3034 1497 
Q 3034 2003 2786 2293 
Q 2538 2584 2113 2584 
z
M 3366 4563 
L 3366 3988 
Q 3128 4100 2886 4159 
Q 2644 4219 2406 4219 
Q 1781 4219 1451 3797 
Q 1122 3375 1075 2522 
Q 1259 2794 1537 2939 
Q 1816 3084 2150 3084 
Q 2853 3084 3261 2657 
Q 3669 2231 3669 1497 
Q 3669 778 3244 343 
Q 2819 -91 2113 -91 
Q 1303 -91 875 529 
Q 447 1150 447 2328 
Q 447 3434 972 4092 
Q 1497 4750 2381 4750 
Q 2619 4750 2861 4703 
Q 3103 4656 3366 4563 
z
" transform="scale(0.015625)"/>
       </defs>
       <use xlink:href="#DejaVuSans-36"/>
      </g>
     </g>
    </g>
    <g id="ytick_5">
     <g id="line2d_7">
      <g>
       <use xlink:href="#mf06beb2fec" x="82.8" y="84.065447" style="stroke: #000000; stroke-width: 0.6"/>
      </g>
     </g>
     <g id="text_7">
      <!-- 8 -->
      <g transform="translate(70.71 87.104822) scale(0.08 -0.08)">
       <defs>
        <path id="DejaVuSans-38" d="M 2034 2216 
Q 1584 2216 1326 1975 
Q 1069 1734 1069 1313 
Q 1069 891 1326 650 
Q 1584 409 2034 409 
Q 2484 409 2743 651 
Q 3003 894 3003 1313 
Q 3003 1734 2745 1975 
Q 2488 2216 2034 2216 
z
M 1403 2484 
Q 997 2584 770 2862 
Q 544 3141 544 3541 
Q 544 4100 942 4425 
Q 1341 4750 2034 4750 
Q 2731 4750 3128 4425 
Q 3525 4100 3525 3541 
Q 3525 3141 3298 2862 
Q 3072 2584 2669 2484 
Q 3125 2378 3379 2068 
Q 3634 1759 3634 1313 
Q 3634 634 3220 271 
Q 2806 -91 2034 -91 
Q 1263 -91 848 271 
Q 434 634 434 1313 
Q 434 1759 690 2068 
Q 947 2378 1403 2484 
z
M 1172 3481 
Q 1172 3119 1398 2916 
Q 1625 2713 2034 2713 
Q 2441 2713 2670 2916 
Q 2900 3119 2900 3481 
Q 2900 3844 2670 4047 
Q 2441 4250 2034 4250 
Q 1625 4250 1398 4047 
Q 1172 3844 1172 3481 
z
" transform="scale(0.015625)"/>
       </defs>
       <use xlink:href="#DejaVuSans-38"/>
      </g>
     </g>
    </g>
    <g id="text_8">
     <!-- MAE (mm) -->
     <g transform="translate(65.04625 185.24) rotate(-90) scale(0.08 -0.08)">
      <defs>
       <path id="DejaVuSans-4d" d="M 628 4666 
L 1569 4666 
L 2759 1491 
L 3956 4666 
L 4897 4666 
L 4897 0 
L 4281 0 
L 4281 4097 
L 3078 897 
L 2444 897 
L 1241 4097 
L 1241 0 
L 628 0 
L 628 4666 
z
" transform="scale(0.015625)"/>
       <path id="DejaVuSans-41" d="M 2188 4044 
L 1331 1722 
L 3047 1722 
L 2188 4044 
z
M 1831 4666 
L 2547 4666 
L 4325 0 
L 3669 0 
L 3244 1197 
L 1141 1197 
L 716 0 
L 50 0 
L 1831 4666 
z
" transform="scale(0.015625)"/>
       <path id="DejaVuSans-45" d="M 628 4666 
L 3578 4666 
L 3578 4134 
L 1259 4134 
L 1259 2753 
L 3481 2753 
L 3481 2222 
L 1259 2222 
L 1259 531 
L 3634 531 
L 3634 0 
L 628 0 
L 628 4666 
z
" transform="scale(0.015625)"/>
       <path id="DejaVuSans-20" transform="scale(0.015625)"/>
       <path id="DejaVuSans-28" d="M 1984 4856 
Q 1566 4138 1362 3434 
Q 1159 2731 1159 2009 
Q 1159 1288 1364 580 
Q 1569 -128 1984 -844 
L 1484 -844 
Q 1016 -109 783 600 
Q 550 1309 550 2009 
Q 550 2706 781 3412 
Q 1013 4119 1484 4856 
L 1984 4856 
z
" transform="scale(0.015625)"/>
       <path id="DejaVuSans-6d" d="M 3328 2828 
Q 3544 3216 3844 3400 
Q 4144 3584 4550 3584 
Q 5097 3584 5394 3201 
Q 5691 2819 5691 2113 
L 5691 0 
L 5113 0 
L 5113 2094 
Q 5113 2597 4934 2840 
Q 4756 3084 4391 3084 
Q 3944 3084 3684 2787 
Q 3425 2491 3425 1978 
L 3425 0 
L 2847 0 
L 2847 2094 
Q 2847 2600 2669 2842 
Q 2491 3084 2119 3084 
Q 1678 3084 1418 2786 
Q 1159 2488 1159 1978 
L 1159 0 
L 581 0 
L 581 3500 
L 1159 3500 
L 1159 2956 
Q 1356 3278 1631 3431 
Q 1906 3584 2284 3584 
Q 2666 3584 2933 3390 
Q 3200 3197 3328 2828 
z
" transform="scale(0.015625)"/>
       <path id="DejaVuSans-29" d="M 513 4856 
L 1013 4856 
Q 1481 4119 1714 3412 
Q 1947 2706 1947 2009 
Q 1947 1309 1714 600 
Q 1481 -109 1013 -844 
L 513 -844 
Q 928 -128 1133 580 
Q 1338 1288 1338 2009 
Q 1338 2731 1133 3434 
Q 928 4138 513 4856 
z
" transform="scale(0.015625)"/>
      </defs>
      <use xlink:href="#DejaVuSans-4d"/>
      <use xlink:href="#DejaVuSans-41" transform="translate(86.279297 0)"/>
      <use xlink:href="#DejaVuSans-45" transform="translate(154.6875 0)"/>
      <use xlink:href="#DejaVuSans-20" transform="translate(217.871094 0)"/>
      <use xlink:href="#DejaVuSans-28" transform="translate(249.658203 0)"/>
      <use xlink:href="#DejaVuSans-6d" transform="translate(288.671875 0)"/>
      <use xlink:href="#DejaVuSans-6d" transform="translate(386.083984 0)"/>
      <use xlink:href="#DejaVuSans-29" transform="translate(483.496094 0)"/>
     </g>
    </g>
   </g>
   <g id="patch_5">
    <path d="M 82.8 289.08 
L 82.8 39.6 
" style="fill: none; stroke: #000000; stroke-width: 0.6; stroke-linejoin: miter; stroke-linecap: square"/>
   </g>
   <g id="patch_6">
    <path d="M 166.083582 289.08 
L 166.083582 39.6 
" style="fill: none; stroke: #000000; stroke-width: 0.6; stroke-linejoin: miter; stroke-linecap: square"/>
   </g>
   <g id="patch_7">
    <path d="M 82.8 289.08 
L 166.083582 289.08 
" style="fill: none; stroke: #000000; stroke-width: 0.6; stroke-linejoin: miter; stroke-linecap: square"/>
   </g>
   <g id="patch_8">
    <path d="M 82.8 39.6 
L 166.083582 39.6 
" style="fill: none; stroke: #000000; stroke-width: 0.6; stroke-linejoin: miter; stroke-linecap: square"/>
   </g>
   <g id="text_9">
    <!-- a -->
    <g transform="translate(71.140299 33.749325) scale(0.12 -0.12)">
     <defs>
      <path id="DejaVuSans-Bold-61" d="M 2106 1575 
Q 1756 1575 1579 1456 
Q 1403 1338 1403 1106 
Q 1403 894 1545 773 
Q 1688 653 1941 653 
Q 2256 653 2472 879 
Q 2688 1106 2688 1447 
L 2688 1575 
L 2106 1575 
z
M 3816 1997 
L 3816 0 
L 2688 0 
L 2688 519 
Q 2463 200 2181 54 
Q 1900 -91 1497 -91 
Q 953 -91 614 226 
Q 275 544 275 1050 
Q 275 1666 698 1953 
Q 1122 2241 2028 2241 
L 2688 2241 
L 2688 2328 
Q 2688 2594 2478 2717 
Q 2269 2841 1825 2841 
Q 1466 2841 1156 2769 
Q 847 2697 581 2553 
L 581 3406 
Q 941 3494 1303 3539 
Q 1666 3584 2028 3584 
Q 2975 3584 3395 3211 
Q 3816 2838 3816 1997 
z
" transform="scale(0.015625)"/>
     </defs>
     <use xlink:href="#DejaVuSans-Bold-61"/>
    </g>
   </g>
   <g id="text_10">
    <!-- 9.27 -->
    <g transform="translate(94.504333 49.81625) scale(0.08 -0.08)">
     <defs>
      <path id="DejaVuSans-39" d="M 703 97 
L 703 672 
Q 941 559 1184 500 
Q 1428 441 1663 441 
Q 2288 441 2617 861 
Q 2947 1281 2994 2138 
Q 2813 1869 2534 1725 
Q 2256 1581 1919 1581 
Q 1219 1581 811 2004 
Q 403 2428 403 3163 
Q 403 3881 828 4315 
Q 1253 4750 1959 4750 
Q 2769 4750 3195 4129 
Q 3622 3509 3622 2328 
Q 3622 1225 3098 567 
Q 2575 -91 1691 -91 
Q 1453 -91 1209 -44 
Q 966 3 703 97 
z
M 1959 2075 
Q 2384 2075 2632 2365 
Q 2881 2656 2881 3163 
Q 2881 3666 2632 3958 
Q 2384 4250 1959 4250 
Q 1534 4250 1286 3958 
Q 1038 3666 1038 3163 
Q 1038 2656 1286 2365 
Q 1534 2075 1959 2075 
z
" transform="scale(0.015625)"/>
      <path id="DejaVuSans-2e" d="M 684 794 
L 1344 794 
L 1344 0 
L 684 0 
L 684 794 
z
" transform="scale(0.015625)"/>
      <path id="DejaVuSans-37" d="M 525 4666 
L 3525 4666 
L 3525 4397 
L 1831 0 
L 1172 0 
L 2766 4134 
L 525 4134 
L 525 4666 
z
" transform="scale(0.015625)"/>
     </defs>
     <use xlink:href="#DejaVuSans-39"/>
     <use xlink:href="#DejaVuSans-2e" transform="translate(63.623047 0)"/>
     <use xlink:href="#DejaVuSans-32" transform="translate(95.410156 0)"/>
     <use xlink:href="#DejaVuSans-37" transform="translate(159.033203 0)"/>
    </g>
   </g>
   <g id="text_11">
    <!-- 1.78 -->
    <g transform="translate(136.566749 241.830502) scale(0.08 -0.08)">
     <defs>
      <path id="DejaVuSans-31" d="M 794 531 
L 1825 531 
L 1825 4091 
L 703 3866 
L 703 4441 
L 1819 4666 
L 2450 4666 
L 2450 531 
L 3481 531 
L 3481 0 
L 794 0 
L 794 531 
z
" transform="scale(0.015625)"/>
     </defs>
     <use xlink:href="#DejaVuSans-31"/>
     <use xlink:href="#DejaVuSans-2e" transform="translate(63.623047 0)"/>
     <use xlink:href="#DejaVuSans-37" transform="translate(95.410156 0)"/>
     <use xlink:href="#DejaVuSans-38" transform="translate(159.033203 0)"/>
    </g>
   </g>
   <g id="text_12">
    <!-- Core (with physics) -->
    <g transform="translate(86.116166 33.6) scale(0.08 -0.08)">
     <defs>
      <path id="DejaVuSans-43" d="M 4122 4306 
L 4122 3641 
Q 3803 3938 3442 4084 
Q 3081 4231 2675 4231 
Q 1875 4231 1450 3742 
Q 1025 3253 1025 2328 
Q 1025 1406 1450 917 
Q 1875 428 2675 428 
Q 3081 428 3442 575 
Q 3803 722 4122 1019 
L 4122 359 
Q 3791 134 3420 21 
Q 3050 -91 2638 -91 
Q 1578 -91 968 557 
Q 359 1206 359 2328 
Q 359 3453 968 4101 
Q 1578 4750 2638 4750 
Q 3056 4750 3426 4639 
Q 3797 4528 4122 4306 
z
" transform="scale(0.015625)"/>
      <path id="DejaVuSans-72" d="M 2631 2963 
Q 2534 3019 2420 3045 
Q 2306 3072 2169 3072 
Q 1681 3072 1420 2755 
Q 1159 2438 1159 1844 
L 1159 0 
L 581 0 
L 581 3500 
L 1159 3500 
L 1159 2956 
Q 1341 3275 1631 3429 
Q 1922 3584 2338 3584 
Q 2397 3584 2469 3576 
Q 2541 3569 2628 3553 
L 2631 2963 
z
" transform="scale(0.015625)"/>
      <path id="DejaVuSans-65" d="M 3597 1894 
L 3597 1613 
L 953 1613 
Q 991 1019 1311 708 
Q 1631 397 2203 397 
Q 2534 397 2845 478 
Q 3156 559 3463 722 
L 3463 178 
Q 3153 47 2828 -22 
Q 2503 -91 2169 -91 
Q 1331 -91 842 396 
Q 353 884 353 1716 
Q 353 2575 817 3079 
Q 1281 3584 2069 3584 
Q 2775 3584 3186 3129 
Q 3597 2675 3597 1894 
z
M 3022 2063 
Q 3016 2534 2758 2815 
Q 2500 3097 2075 3097 
Q 1594 3097 1305 2825 
Q 1016 2553 972 2059 
L 3022 2063 
z
" transform="scale(0.015625)"/>
      <path id="DejaVuSans-77" d="M 269 3500 
L 844 3500 
L 1563 769 
L 2278 3500 
L 2956 3500 
L 3675 769 
L 4391 3500 
L 4966 3500 
L 4050 0 
L 3372 0 
L 2619 2869 
L 1863 0 
L 1184 0 
L 269 3500 
z
" transform="scale(0.015625)"/>
      <path id="DejaVuSans-69" d="M 603 3500 
L 1178 3500 
L 1178 0 
L 603 0 
L 603 3500 
z
M 603 4863 
L 1178 4863 
L 1178 4134 
L 603 4134 
L 603 4863 
z
" transform="scale(0.015625)"/>
      <path id="DejaVuSans-74" d="M 1172 4494 
L 1172 3500 
L 2356 3500 
L 2356 3053 
L 1172 3053 
L 1172 1153 
Q 1172 725 1289 603 
Q 1406 481 1766 481 
L 2356 481 
L 2356 0 
L 1766 0 
Q 1100 0 847 248 
Q 594 497 594 1153 
L 594 3053 
L 172 3053 
L 172 3500 
L 594 3500 
L 594 4494 
L 1172 4494 
z
" transform="scale(0.015625)"/>
      <path id="DejaVuSans-70" d="M 1159 525 
L 1159 -1331 
L 581 -1331 
L 581 3500 
L 1159 3500 
L 1159 2969 
Q 1341 3281 1617 3432 
Q 1894 3584 2278 3584 
Q 2916 3584 3314 3078 
Q 3713 2572 3713 1747 
Q 3713 922 3314 415 
Q 2916 -91 2278 -91 
Q 1894 -91 1617 61 
Q 1341 213 1159 525 
z
M 3116 1747 
Q 3116 2381 2855 2742 
Q 2594 3103 2138 3103 
Q 1681 3103 1420 2742 
Q 1159 2381 1159 1747 
Q 1159 1113 1420 752 
Q 1681 391 2138 391 
Q 2594 391 2855 752 
Q 3116 1113 3116 1747 
z
" transform="scale(0.015625)"/>
      <path id="DejaVuSans-79" d="M 2059 -325 
Q 1816 -950 1584 -1140 
Q 1353 -1331 966 -1331 
L 506 -1331 
L 506 -850 
L 844 -850 
Q 1081 -850 1212 -737 
Q 1344 -625 1503 -206 
L 1606 56 
L 191 3500 
L 800 3500 
L 1894 763 
L 2988 3500 
L 3597 3500 
L 2059 -325 
z
" transform="scale(0.015625)"/>
      <path id="DejaVuSans-63" d="M 3122 3366 
L 3122 2828 
Q 2878 2963 2633 3030 
Q 2388 3097 2138 3097 
Q 1578 3097 1268 2742 
Q 959 2388 959 1747 
Q 959 1106 1268 751 
Q 1578 397 2138 397 
Q 2388 397 2633 464 
Q 2878 531 3122 666 
L 3122 134 
Q 2881 22 2623 -34 
Q 2366 -91 2075 -91 
Q 1284 -91 818 406 
Q 353 903 353 1747 
Q 353 2603 823 3093 
Q 1294 3584 2113 3584 
Q 2378 3584 2631 3529 
Q 2884 3475 3122 3366 
z
" transform="scale(0.015625)"/>
     </defs>
     <use xlink:href="#DejaVuSans-43"/>
     <use xlink:href="#DejaVuSans-6f" transform="translate(69.824219 0)"/>
     <use xlink:href="#DejaVuSans-72" transform="translate(131.005859 0)"/>
     <use xlink:href="#DejaVuSans-65" transform="translate(169.869141 0)"/>
     <use xlink:href="#DejaVuSans-20" transform="translate(231.392578 0)"/>
     <use xlink:href="#DejaVuSans-28" transform="translate(263.179688 0)"/>
     <use xlink:href="#DejaVuSans-77" transform="translate(302.193359 0)"/>
     <use xlink:href="#DejaVuSans-69" transform="translate(383.980469 0)"/>
     <use xlink:href="#DejaVuSans-74" transform="translate(411.763672 0)"/>
     <use xlink:href="#DejaVuSans-68" transform="translate(450.972656 0)"/>
     <use xlink:href="#DejaVuSans-20" transform="translate(514.351562 0)"/>
     <use xlink:href="#DejaVuSans-70" transform="translate(546.138672 0)"/>
     <use xlink:href="#DejaVuSans-68" transform="translate(609.615234 0)"/>
     <use xlink:href="#DejaVuSans-79" transform="translate(672.994141 0)"/>
     <use xlink:href="#DejaVuSans-73" transform="translate(732.173828 0)"/>
     <use xlink:href="#DejaVuSans-69" transform="translate(784.273438 0)"/>
     <use xlink:href="#DejaVuSans-63" transform="translate(812.056641 0)"/>
     <use xlink:href="#DejaVuSans-73" transform="translate(867.037109 0)"/>
     <use xlink:href="#DejaVuSans-29" transform="translate(919.136719 0)"/>
    </g>
   </g>
  </g>
  <g id="axes_2">
   <g id="patch_9">
    <path d="M 241.038806 135.553846 
L 324.322388 135.553846 
L 324.322388 39.6 
L 241.038806 39.6 
z
" style="fill: #ffffff"/>
   </g>
   <g id="patch_10">
    <path d="M 244.824423 135.553846 
L 278.474355 135.553846 
L 278.474355 45.614301 
L 244.824423 45.614301 
z
" clip-path="url(#pb1ab2c7a5f)" style="fill: #1f78b4"/>
   </g>
   <g id="patch_11">
    <path d="M 286.886839 135.553846 
L 320.536771 135.553846 
L 320.536771 44.169231 
L 286.886839 44.169231 
z
" clip-path="url(#pb1ab2c7a5f)" style="fill: #e31a1c"/>
   </g>
   <g id="matplotlib.axis_3">
    <g id="xtick_3">
     <g id="line2d_8">
      <g>
       <use xlink:href="#me04f3b39d0" x="261.649389" y="135.553846" style="stroke: #000000; stroke-width: 0.6"/>
      </g>
     </g>
     <g id="text_13">
      <!-- Nansha -->
      <g transform="translate(246.600639 148.632596) scale(0.08 -0.08)">
       <use xlink:href="#DejaVuSans-4e"/>
       <use xlink:href="#DejaVuSans-61" transform="translate(74.804688 0)"/>
       <use xlink:href="#DejaVuSans-6e" transform="translate(136.083984 0)"/>
       <use xlink:href="#DejaVuSans-73" transform="translate(199.462891 0)"/>
       <use xlink:href="#DejaVuSans-68" transform="translate(251.5625 0)"/>
       <use xlink:href="#DejaVuSans-61" transform="translate(314.941406 0)"/>
      </g>
     </g>
    </g>
    <g id="xtick_4">
     <g id="line2d_9">
      <g>
       <use xlink:href="#me04f3b39d0" x="303.711805" y="135.553846" style="stroke: #000000; stroke-width: 0.6"/>
      </g>
     </g>
     <g id="text_14">
      <!-- Zhongshan -->
      <g transform="translate(281.30993 148.632596) scale(0.08 -0.08)">
       <use xlink:href="#DejaVuSans-5a"/>
       <use xlink:href="#DejaVuSans-68" transform="translate(68.505859 0)"/>
       <use xlink:href="#DejaVuSans-6f" transform="translate(131.884766 0)"/>
       <use xlink:href="#DejaVuSans-6e" transform="translate(193.066406 0)"/>
       <use xlink:href="#DejaVuSans-67" transform="translate(256.445312 0)"/>
       <use xlink:href="#DejaVuSans-73" transform="translate(319.921875 0)"/>
       <use xlink:href="#DejaVuSans-68" transform="translate(372.021484 0)"/>
       <use xlink:href="#DejaVuSans-61" transform="translate(435.400391 0)"/>
       <use xlink:href="#DejaVuSans-6e" transform="translate(496.679688 0)"/>
      </g>
     </g>
    </g>
   </g>
   <g id="matplotlib.axis_4">
    <g id="ytick_6">
     <g id="line2d_10">
      <g>
       <use xlink:href="#mf06beb2fec" x="241.038806" y="135.553846" style="stroke: #000000; stroke-width: 0.6"/>
      </g>
     </g>
     <g id="text_15">
      <!-- 0.0 -->
      <g transform="translate(221.316306 138.593221) scale(0.08 -0.08)">
       <use xlink:href="#DejaVuSans-30"/>
       <use xlink:href="#DejaVuSans-2e" transform="translate(63.623047 0)"/>
       <use xlink:href="#DejaVuSans-30" transform="translate(95.410156 0)"/>
      </g>
     </g>
    </g>
    <g id="ytick_7">
     <g id="line2d_11">
      <g>
       <use xlink:href="#mf06beb2fec" x="241.038806" y="115.185643" style="stroke: #000000; stroke-width: 0.6"/>
      </g>
     </g>
     <g id="text_16">
      <!-- 0.2 -->
      <g transform="translate(221.316306 118.225018) scale(0.08 -0.08)">
       <use xlink:href="#DejaVuSans-30"/>
       <use xlink:href="#DejaVuSans-2e" transform="translate(63.623047 0)"/>
       <use xlink:href="#DejaVuSans-32" transform="translate(95.410156 0)"/>
      </g>
     </g>
    </g>
    <g id="ytick_8">
     <g id="line2d_12">
      <g>
       <use xlink:href="#mf06beb2fec" x="241.038806" y="94.817439" style="stroke: #000000; stroke-width: 0.6"/>
      </g>
     </g>
     <g id="text_17">
      <!-- 0.4 -->
      <g transform="translate(221.316306 97.856814) scale(0.08 -0.08)">
       <use xlink:href="#DejaVuSans-30"/>
       <use xlink:href="#DejaVuSans-2e" transform="translate(63.623047 0)"/>
       <use xlink:href="#DejaVuSans-34" transform="translate(95.410156 0)"/>
      </g>
     </g>
    </g>
    <g id="ytick_9">
     <g id="line2d_13">
      <g>
       <use xlink:href="#mf06beb2fec" x="241.038806" y="74.449235" style="stroke: #000000; stroke-width: 0.6"/>
      </g>
     </g>
     <g id="text_18">
      <!-- 0.6 -->
      <g transform="translate(221.316306 77.48861) scale(0.08 -0.08)">
       <use xlink:href="#DejaVuSans-30"/>
       <use xlink:href="#DejaVuSans-2e" transform="translate(63.623047 0)"/>
       <use xlink:href="#DejaVuSans-36" transform="translate(95.410156 0)"/>
      </g>
     </g>
    </g>
    <g id="ytick_10">
     <g id="line2d_14">
      <g>
       <use xlink:href="#mf06beb2fec" x="241.038806" y="54.081032" style="stroke: #000000; stroke-width: 0.6"/>
      </g>
     </g>
     <g id="text_19">
      <!-- 0.8 -->
      <g transform="translate(221.316306 57.120407) scale(0.08 -0.08)">
       <use xlink:href="#DejaVuSans-30"/>
       <use xlink:href="#DejaVuSans-2e" transform="translate(63.623047 0)"/>
       <use xlink:href="#DejaVuSans-38" transform="translate(95.410156 0)"/>
      </g>
     </g>
    </g>
    <g id="text_20">
     <!-- $R^2$ -->
     <g transform="translate(215.652556 92.536923) rotate(-90) scale(0.08 -0.08)">
      <defs>
       <path id="DejaVuSans-Oblique-52" d="M 1613 4147 
L 1294 2491 
L 2106 2491 
Q 2584 2491 2879 2755 
Q 3175 3019 3175 3444 
Q 3175 3784 2976 3965 
Q 2778 4147 2406 4147 
L 1613 4147 
z
M 2772 2241 
Q 2972 2194 3105 2009 
Q 3238 1825 3413 1275 
L 3809 0 
L 3144 0 
L 2778 1197 
Q 2638 1659 2453 1815 
Q 2269 1972 1888 1972 
L 1191 1972 
L 806 0 
L 172 0 
L 1081 4666 
L 2503 4666 
Q 3150 4666 3495 4373 
Q 3841 4081 3841 3531 
Q 3841 3044 3547 2687 
Q 3253 2331 2772 2241 
z
" transform="scale(0.015625)"/>
      </defs>
      <use xlink:href="#DejaVuSans-Oblique-52" transform="translate(0 0.765625)"/>
      <use xlink:href="#DejaVuSans-32" transform="translate(76.499193 39.046875) scale(0.7)"/>
     </g>
    </g>
   </g>
   <g id="patch_12">
    <path d="M 241.038806 135.553846 
L 241.038806 39.6 
" style="fill: none; stroke: #000000; stroke-width: 0.6; stroke-linejoin: miter; stroke-linecap: square"/>
   </g>
   <g id="patch_13">
    <path d="M 324.322388 135.553846 
L 324.322388 39.6 
" style="fill: none; stroke: #000000; stroke-width: 0.6; stroke-linejoin: miter; stroke-linecap: square"/>
   </g>
   <g id="patch_14">
    <path d="M 241.038806 135.553846 
L 324.322388 135.553846 
" style="fill: none; stroke: #000000; stroke-width: 0.6; stroke-linejoin: miter; stroke-linecap: square"/>
   </g>
   <g id="patch_15">
    <path d="M 241.038806 39.6 
L 324.322388 39.6 
" style="fill: none; stroke: #000000; stroke-width: 0.6; stroke-linejoin: miter; stroke-linecap: square"/>
   </g>
   <g id="text_21">
    <!-- b -->
    <g transform="translate(229.379104 42.960894) scale(0.12 -0.12)">
     <defs>
      <path id="DejaVuSans-Bold-62" d="M 2400 722 
Q 2759 722 2948 984 
Q 3138 1247 3138 1747 
Q 3138 2247 2948 2509 
Q 2759 2772 2400 2772 
Q 2041 2772 1848 2508 
Q 1656 2244 1656 1747 
Q 1656 1250 1848 986 
Q 2041 722 2400 722 
z
M 1656 2988 
Q 1888 3294 2169 3439 
Q 2450 3584 2816 3584 
Q 3463 3584 3878 3070 
Q 4294 2556 4294 1747 
Q 4294 938 3878 423 
Q 3463 -91 2816 -91 
Q 2450 -91 2169 54 
Q 1888 200 1656 506 
L 1656 0 
L 538 0 
L 538 4863 
L 1656 4863 
L 1656 2988 
z
" transform="scale(0.015625)"/>
     </defs>
     <use xlink:href="#DejaVuSans-Bold-62"/>
    </g>
   </g>
   <g id="text_22">
    <!-- 0.88 -->
    <g transform="translate(252.743139 43.950551) scale(0.08 -0.08)">
     <use xlink:href="#DejaVuSans-30"/>
     <use xlink:href="#DejaVuSans-2e" transform="translate(63.623047 0)"/>
     <use xlink:href="#DejaVuSans-38" transform="translate(95.410156 0)"/>
     <use xlink:href="#DejaVuSans-38" transform="translate(159.033203 0)"/>
    </g>
   </g>
   <g id="text_23">
    <!-- 0.90 -->
    <g transform="translate(294.805555 42.505481) scale(0.08 -0.08)">
     <use xlink:href="#DejaVuSans-30"/>
     <use xlink:href="#DejaVuSans-2e" transform="translate(63.623047 0)"/>
     <use xlink:href="#DejaVuSans-39" transform="translate(95.410156 0)"/>
     <use xlink:href="#DejaVuSans-30" transform="translate(159.033203 0)"/>
    </g>
   </g>
   <g id="text_24">
    <!-- $R^2$ (↑) -->
    <g transform="translate(269.960597 33.6) scale(0.08 -0.08)">
     <defs>
      <path id="DejaVuSans-2191" d="M 2541 4688 
L 2822 4688 
L 4047 3456 
L 3672 3081 
L 2947 3813 
L 2947 0 
L 2416 0 
L 2416 3813 
L 1684 3081 
L 1309 3456 
L 2541 4688 
z
" transform="scale(0.015625)"/>
     </defs>
     <use xlink:href="#DejaVuSans-Oblique-52" transform="translate(0 0.765625)"/>
     <use xlink:href="#DejaVuSans-32" transform="translate(76.499193 39.046875) scale(0.7)"/>
     <use xlink:href="#DejaVuSans-20" transform="translate(123.769701 0.765625)"/>
     <use xlink:href="#DejaVuSans-28" transform="translate(155.55681 0.765625)"/>
     <use xlink:href="#DejaVuSans-2191" transform="translate(194.570482 0.765625)"/>
     <use xlink:href="#DejaVuSans-29" transform="translate(278.359544 0.765625)"/>
    </g>
   </g>
  </g>
  <g id="axes_3">
   <g id="patch_16">
    <path d="M 241.038806 289.08 
L 324.322388 289.08 
L 324.322388 193.126154 
L 241.038806 193.126154 
z
" style="fill: #ffffff"/>
   </g>
   <g id="patch_17">
    <path d="M 244.824423 289.08 
L 278.474355 289.08 
L 278.474355 197.695385 
L 244.824423 197.695385 
z
" clip-path="url(#p394b172f10)" style="fill: #1f78b4"/>
   </g>
   <g id="patch_18">
    <path d="M 286.886839 289.08 
L 320.536771 289.08 
L 320.536771 286.444158 
L 286.886839 286.444158 
z
" clip-path="url(#p394b172f10)" style="fill: #e31a1c"/>
   </g>
   <g id="matplotlib.axis_5">
    <g id="xtick_5">
     <g id="line2d_15">
      <g>
       <use xlink:href="#me04f3b39d0" x="261.649389" y="289.08" style="stroke: #000000; stroke-width: 0.6"/>
      </g>
     </g>
     <g id="text_25">
      <!-- Nansha -->
      <g transform="translate(246.600639 302.15875) scale(0.08 -0.08)">
       <use xlink:href="#DejaVuSans-4e"/>
       <use xlink:href="#DejaVuSans-61" transform="translate(74.804688 0)"/>
       <use xlink:href="#DejaVuSans-6e" transform="translate(136.083984 0)"/>
       <use xlink:href="#DejaVuSans-73" transform="translate(199.462891 0)"/>
       <use xlink:href="#DejaVuSans-68" transform="translate(251.5625 0)"/>
       <use xlink:href="#DejaVuSans-61" transform="translate(314.941406 0)"/>
      </g>
     </g>
    </g>
    <g id="xtick_6">
     <g id="line2d_16">
      <g>
       <use xlink:href="#me04f3b39d0" x="303.711805" y="289.08" style="stroke: #000000; stroke-width: 0.6"/>
      </g>
     </g>
     <g id="text_26">
      <!-- Zhongshan -->
      <g transform="translate(281.30993 302.15875) scale(0.08 -0.08)">
       <use xlink:href="#DejaVuSans-5a"/>
       <use xlink:href="#DejaVuSans-68" transform="translate(68.505859 0)"/>
       <use xlink:href="#DejaVuSans-6f" transform="translate(131.884766 0)"/>
       <use xlink:href="#DejaVuSans-6e" transform="translate(193.066406 0)"/>
       <use xlink:href="#DejaVuSans-67" transform="translate(256.445312 0)"/>
       <use xlink:href="#DejaVuSans-73" transform="translate(319.921875 0)"/>
       <use xlink:href="#DejaVuSans-68" transform="translate(372.021484 0)"/>
       <use xlink:href="#DejaVuSans-61" transform="translate(435.400391 0)"/>
       <use xlink:href="#DejaVuSans-6e" transform="translate(496.679688 0)"/>
      </g>
     </g>
    </g>
   </g>
   <g id="matplotlib.axis_6">
    <g id="ytick_11">
     <g id="line2d_17">
      <g>
       <use xlink:href="#mf06beb2fec" x="241.038806" y="289.08" style="stroke: #000000; stroke-width: 0.6"/>
      </g>
     </g>
     <g id="text_27">
      <!-- 0 -->
      <g transform="translate(228.948806 292.119375) scale(0.08 -0.08)">
       <use xlink:href="#DejaVuSans-30"/>
      </g>
     </g>
    </g>
    <g id="ytick_12">
     <g id="line2d_18">
      <g>
       <use xlink:href="#mf06beb2fec" x="241.038806" y="254.263346" style="stroke: #000000; stroke-width: 0.6"/>
      </g>
     </g>
     <g id="text_28">
      <!-- 100 -->
      <g transform="translate(218.768806 257.302721) scale(0.08 -0.08)">
       <use xlink:href="#DejaVuSans-31"/>
       <use xlink:href="#DejaVuSans-30" transform="translate(63.623047 0)"/>
       <use xlink:href="#DejaVuSans-30" transform="translate(127.246094 0)"/>
      </g>
     </g>
    </g>
    <g id="ytick_13">
     <g id="line2d_19">
      <g>
       <use xlink:href="#mf06beb2fec" x="241.038806" y="219.446691" style="stroke: #000000; stroke-width: 0.6"/>
      </g>
     </g>
     <g id="text_29">
      <!-- 200 -->
      <g transform="translate(218.768806 222.486066) scale(0.08 -0.08)">
       <use xlink:href="#DejaVuSans-32"/>
       <use xlink:href="#DejaVuSans-30" transform="translate(63.623047 0)"/>
       <use xlink:href="#DejaVuSans-30" transform="translate(127.246094 0)"/>
      </g>
     </g>
    </g>
    <g id="text_30">
     <!-- MSE (mm²) -->
     <g transform="translate(213.105056 263.409952) rotate(-90) scale(0.08 -0.08)">
      <defs>
       <path id="DejaVuSans-53" d="M 3425 4513 
L 3425 3897 
Q 3066 4069 2747 4153 
Q 2428 4238 2131 4238 
Q 1616 4238 1336 4038 
Q 1056 3838 1056 3469 
Q 1056 3159 1242 3001 
Q 1428 2844 1947 2747 
L 2328 2669 
Q 3034 2534 3370 2195 
Q 3706 1856 3706 1288 
Q 3706 609 3251 259 
Q 2797 -91 1919 -91 
Q 1588 -91 1214 -16 
Q 841 59 441 206 
L 441 856 
Q 825 641 1194 531 
Q 1563 422 1919 422 
Q 2459 422 2753 634 
Q 3047 847 3047 1241 
Q 3047 1584 2836 1778 
Q 2625 1972 2144 2069 
L 1759 2144 
Q 1053 2284 737 2584 
Q 422 2884 422 3419 
Q 422 4038 858 4394 
Q 1294 4750 2059 4750 
Q 2388 4750 2728 4690 
Q 3069 4631 3425 4513 
z
" transform="scale(0.015625)"/>
       <path id="DejaVuSans-b2" d="M 838 2444 
L 2163 2444 
L 2163 2088 
L 294 2088 
L 294 2431 
Q 400 2528 597 2703 
Q 1672 3656 1672 3950 
Q 1672 4156 1509 4282 
Q 1347 4409 1081 4409 
Q 919 4409 728 4354 
Q 538 4300 313 4191 
L 313 4575 
Q 553 4663 761 4706 
Q 969 4750 1147 4750 
Q 1600 4750 1872 4544 
Q 2144 4338 2144 4000 
Q 2144 3566 1109 2678 
Q 934 2528 838 2444 
z
" transform="scale(0.015625)"/>
      </defs>
      <use xlink:href="#DejaVuSans-4d"/>
      <use xlink:href="#DejaVuSans-53" transform="translate(86.279297 0)"/>
      <use xlink:href="#DejaVuSans-45" transform="translate(149.755859 0)"/>
      <use xlink:href="#DejaVuSans-20" transform="translate(212.939453 0)"/>
      <use xlink:href="#DejaVuSans-28" transform="translate(244.726562 0)"/>
      <use xlink:href="#DejaVuSans-6d" transform="translate(283.740234 0)"/>
      <use xlink:href="#DejaVuSans-6d" transform="translate(381.152344 0)"/>
      <use xlink:href="#DejaVuSans-b2" transform="translate(478.564453 0)"/>
      <use xlink:href="#DejaVuSans-29" transform="translate(518.652344 0)"/>
     </g>
    </g>
   </g>
   <g id="patch_19">
    <path d="M 241.038806 289.08 
L 241.038806 193.126154 
" style="fill: none; stroke: #000000; stroke-width: 0.6; stroke-linejoin: miter; stroke-linecap: square"/>
   </g>
   <g id="patch_20">
    <path d="M 324.322388 289.08 
L 324.322388 193.126154 
" style="fill: none; stroke: #000000; stroke-width: 0.6; stroke-linejoin: miter; stroke-linecap: square"/>
   </g>
   <g id="patch_21">
    <path d="M 241.038806 289.08 
L 324.322388 289.08 
" style="fill: none; stroke: #000000; stroke-width: 0.6; stroke-linejoin: miter; stroke-linecap: square"/>
   </g>
   <g id="patch_22">
    <path d="M 241.038806 193.126154 
L 324.322388 193.126154 
" style="fill: none; stroke: #000000; stroke-width: 0.6; stroke-linejoin: miter; stroke-linecap: square"/>
   </g>
   <g id="text_31">
    <!-- c -->
    <g transform="translate(229.379104 196.487048) scale(0.12 -0.12)">
     <defs>
      <path id="DejaVuSans-Bold-63" d="M 3366 3391 
L 3366 2478 
Q 3138 2634 2908 2709 
Q 2678 2784 2431 2784 
Q 1963 2784 1702 2511 
Q 1441 2238 1441 1747 
Q 1441 1256 1702 982 
Q 1963 709 2431 709 
Q 2694 709 2930 787 
Q 3166 866 3366 1019 
L 3366 103 
Q 3103 6 2833 -42 
Q 2563 -91 2291 -91 
Q 1344 -91 809 395 
Q 275 881 275 1747 
Q 275 2613 809 3098 
Q 1344 3584 2291 3584 
Q 2566 3584 2833 3536 
Q 3100 3488 3366 3391 
z
" transform="scale(0.015625)"/>
     </defs>
     <use xlink:href="#DejaVuSans-Bold-63"/>
    </g>
   </g>
   <g id="text_32">
    <!-- 262.47 -->
    <g transform="translate(247.653139 196.031635) scale(0.08 -0.08)">
     <use xlink:href="#DejaVuSans-32"/>
     <use xlink:href="#DejaVuSans-36" transform="translate(63.623047 0)"/>
     <use xlink:href="#DejaVuSans-32" transform="translate(127.246094 0)"/>
     <use xlink:href="#DejaVuSans-2e" transform="translate(190.869141 0)"/>
     <use xlink:href="#DejaVuSans-34" transform="translate(222.65625 0)"/>
     <use xlink:href="#DejaVuSans-37" transform="translate(286.279297 0)"/>
    </g>
   </g>
   <g id="text_33">
    <!-- 7.57 -->
    <g transform="translate(294.805555 284.780408) scale(0.08 -0.08)">
     <defs>
      <path id="DejaVuSans-35" d="M 691 4666 
L 3169 4666 
L 3169 4134 
L 1269 4134 
L 1269 2991 
Q 1406 3038 1543 3061 
Q 1681 3084 1819 3084 
Q 2600 3084 3056 2656 
Q 3513 2228 3513 1497 
Q 3513 744 3044 326 
Q 2575 -91 1722 -91 
Q 1428 -91 1123 -41 
Q 819 9 494 109 
L 494 744 
Q 775 591 1075 516 
Q 1375 441 1709 441 
Q 2250 441 2565 725 
Q 2881 1009 2881 1497 
Q 2881 1984 2565 2268 
Q 2250 2553 1709 2553 
Q 1456 2553 1204 2497 
Q 953 2441 691 2322 
L 691 4666 
z
" transform="scale(0.015625)"/>
     </defs>
     <use xlink:href="#DejaVuSans-37"/>
     <use xlink:href="#DejaVuSans-2e" transform="translate(63.623047 0)"/>
     <use xlink:href="#DejaVuSans-35" transform="translate(95.410156 0)"/>
     <use xlink:href="#DejaVuSans-37" transform="translate(159.033203 0)"/>
    </g>
   </g>
   <g id="text_34">
    <!-- MSE (↓, mm²) -->
    <g transform="translate(254.479347 187.126154) scale(0.08 -0.08)">
     <defs>
      <path id="DejaVuSans-2193" d="M 2822 -22 
L 2541 -22 
L 1309 1209 
L 1684 1584 
L 2416 853 
L 2416 4666 
L 2947 4666 
L 2947 853 
L 3672 1584 
L 4047 1209 
L 2822 -22 
z
" transform="scale(0.015625)"/>
      <path id="DejaVuSans-2c" d="M 750 794 
L 1409 794 
L 1409 256 
L 897 -744 
L 494 -744 
L 750 256 
L 750 794 
z
" transform="scale(0.015625)"/>
     </defs>
     <use xlink:href="#DejaVuSans-4d"/>
     <use xlink:href="#DejaVuSans-53" transform="translate(86.279297 0)"/>
     <use xlink:href="#DejaVuSans-45" transform="translate(149.755859 0)"/>
     <use xlink:href="#DejaVuSans-20" transform="translate(212.939453 0)"/>
     <use xlink:href="#DejaVuSans-28" transform="translate(244.726562 0)"/>
     <use xlink:href="#DejaVuSans-2193" transform="translate(283.740234 0)"/>
     <use xlink:href="#DejaVuSans-2c" transform="translate(367.529297 0)"/>
     <use xlink:href="#DejaVuSans-20" transform="translate(399.316406 0)"/>
     <use xlink:href="#DejaVuSans-6d" transform="translate(431.103516 0)"/>
     <use xlink:href="#DejaVuSans-6d" transform="translate(528.515625 0)"/>
     <use xlink:href="#DejaVuSans-b2" transform="translate(625.927734 0)"/>
     <use xlink:href="#DejaVuSans-29" transform="translate(666.015625 0)"/>
    </g>
   </g>
  </g>
  <g id="axes_4">
   <g id="patch_23">
    <path d="M 399.277612 135.553846 
L 482.561194 135.553846 
L 482.561194 39.6 
L 399.277612 39.6 
z
" style="fill: #ffffff"/>
   </g>
   <g id="patch_24">
    <path d="M 403.063229 135.553846 
L 418.91 135.553846 
L 418.91 44.169231 
L 403.063229 44.169231 
z
" clip-path="url(#pcdbf2dd676)" style="fill: #1f78b4"/>
   </g>
   <g id="patch_25">
    <path d="M 447.082036 135.553846 
L 462.928806 135.553846 
L 462.928806 118.020866 
L 447.082036 118.020866 
z
" clip-path="url(#pcdbf2dd676)" style="fill: #e31a1c"/>
   </g>
   <g id="patch_26">
    <path d="M 418.91 135.553846 
L 434.75677 135.553846 
L 434.75677 46.539006 
L 418.91 46.539006 
z
" clip-path="url(#pcdbf2dd676)" style="fill: url(#hea3811fdf4); stroke: #000000; stroke-linejoin: miter"/>
   </g>
   <g id="patch_27">
    <path d="M 462.928806 135.553846 
L 478.775577 135.553846 
L 478.775577 114.424236 
L 462.928806 114.424236 
z
" clip-path="url(#pcdbf2dd676)" style="fill: url(#hea3811fdf4); stroke: #000000; stroke-linejoin: miter"/>
   </g>
   <g id="matplotlib.axis_7">
    <g id="xtick_7">
     <g id="line2d_20">
      <g>
       <use xlink:href="#me04f3b39d0" x="418.91" y="135.553846" style="stroke: #000000; stroke-width: 0.6"/>
      </g>
     </g>
     <g id="text_35">
      <!-- Nansha -->
      <g transform="translate(403.86125 148.632596) scale(0.08 -0.08)">
       <use xlink:href="#DejaVuSans-4e"/>
       <use xlink:href="#DejaVuSans-61" transform="translate(74.804688 0)"/>
       <use xlink:href="#DejaVuSans-6e" transform="translate(136.083984 0)"/>
       <use xlink:href="#DejaVuSans-73" transform="translate(199.462891 0)"/>
       <use xlink:href="#DejaVuSans-68" transform="translate(251.5625 0)"/>
       <use xlink:href="#DejaVuSans-61" transform="translate(314.941406 0)"/>
      </g>
     </g>
    </g>
    <g id="xtick_8">
     <g id="line2d_21">
      <g>
       <use xlink:href="#me04f3b39d0" x="462.928806" y="135.553846" style="stroke: #000000; stroke-width: 0.6"/>
      </g>
     </g>
     <g id="text_36">
      <!-- Zhongshan -->
      <g transform="translate(440.526931 148.632596) scale(0.08 -0.08)">
       <use xlink:href="#DejaVuSans-5a"/>
       <use xlink:href="#DejaVuSans-68" transform="translate(68.505859 0)"/>
       <use xlink:href="#DejaVuSans-6f" transform="translate(131.884766 0)"/>
       <use xlink:href="#DejaVuSans-6e" transform="translate(193.066406 0)"/>
       <use xlink:href="#DejaVuSans-67" transform="translate(256.445312 0)"/>
       <use xlink:href="#DejaVuSans-73" transform="translate(319.921875 0)"/>
       <use xlink:href="#DejaVuSans-68" transform="translate(372.021484 0)"/>
       <use xlink:href="#DejaVuSans-61" transform="translate(435.400391 0)"/>
       <use xlink:href="#DejaVuSans-6e" transform="translate(496.679688 0)"/>
      </g>
     </g>
    </g>
   </g>
   <g id="matplotlib.axis_8">
    <g id="ytick_14">
     <g id="line2d_22">
      <path d="M 399.277612 135.553846 
L 482.561194 135.553846 
" clip-path="url(#pcdbf2dd676)" style="fill: none; stroke: #b0b0b0; stroke-opacity: 0.2; stroke-width: 0.8; stroke-linecap: square"/>
     </g>
     <g id="line2d_23">
      <g>
       <use xlink:href="#mf06beb2fec" x="399.277612" y="135.553846" style="stroke: #000000; stroke-width: 0.6"/>
      </g>
     </g>
     <g id="text_37">
      <!-- 0 -->
      <g transform="translate(387.187612 138.593221) scale(0.08 -0.08)">
       <use xlink:href="#DejaVuSans-30"/>
      </g>
     </g>
    </g>
    <g id="ytick_15">
     <g id="line2d_24">
      <path d="M 399.277612 115.840908 
L 482.561194 115.840908 
" clip-path="url(#pcdbf2dd676)" style="fill: none; stroke: #b0b0b0; stroke-opacity: 0.2; stroke-width: 0.8; stroke-linecap: square"/>
     </g>
     <g id="line2d_25">
      <g>
       <use xlink:href="#mf06beb2fec" x="399.277612" y="115.840908" style="stroke: #000000; stroke-width: 0.6"/>
      </g>
     </g>
     <g id="text_38">
      <!-- 2 -->
      <g transform="translate(387.187612 118.880283) scale(0.08 -0.08)">
       <use xlink:href="#DejaVuSans-32"/>
      </g>
     </g>
    </g>
    <g id="ytick_16">
     <g id="line2d_26">
      <path d="M 399.277612 96.127971 
L 482.561194 96.127971 
" clip-path="url(#pcdbf2dd676)" style="fill: none; stroke: #b0b0b0; stroke-opacity: 0.2; stroke-width: 0.8; stroke-linecap: square"/>
     </g>
     <g id="line2d_27">
      <g>
       <use xlink:href="#mf06beb2fec" x="399.277612" y="96.127971" style="stroke: #000000; stroke-width: 0.6"/>
      </g>
     </g>
     <g id="text_39">
      <!-- 4 -->
      <g transform="translate(387.187612 99.167346) scale(0.08 -0.08)">
       <use xlink:href="#DejaVuSans-34"/>
      </g>
     </g>
    </g>
    <g id="ytick_17">
     <g id="line2d_28">
      <path d="M 399.277612 76.415033 
L 482.561194 76.415033 
" clip-path="url(#pcdbf2dd676)" style="fill: none; stroke: #b0b0b0; stroke-opacity: 0.2; stroke-width: 0.8; stroke-linecap: square"/>
     </g>
     <g id="line2d_29">
      <g>
       <use xlink:href="#mf06beb2fec" x="399.277612" y="76.415033" style="stroke: #000000; stroke-width: 0.6"/>
      </g>
     </g>
     <g id="text_40">
      <!-- 6 -->
      <g transform="translate(387.187612 79.454408) scale(0.08 -0.08)">
       <use xlink:href="#DejaVuSans-36"/>
      </g>
     </g>
    </g>
    <g id="ytick_18">
     <g id="line2d_30">
      <path d="M 399.277612 56.702095 
L 482.561194 56.702095 
" clip-path="url(#pcdbf2dd676)" style="fill: none; stroke: #b0b0b0; stroke-opacity: 0.2; stroke-width: 0.8; stroke-linecap: square"/>
     </g>
     <g id="line2d_31">
      <g>
       <use xlink:href="#mf06beb2fec" x="399.277612" y="56.702095" style="stroke: #000000; stroke-width: 0.6"/>
      </g>
     </g>
     <g id="text_41">
      <!-- 8 -->
      <g transform="translate(387.187612 59.74147) scale(0.08 -0.08)">
       <use xlink:href="#DejaVuSans-38"/>
      </g>
     </g>
    </g>
    <g id="text_42">
     <!-- MAE (mm) -->
     <g transform="translate(381.523862 108.476923) rotate(-90) scale(0.08 -0.08)">
      <use xlink:href="#DejaVuSans-4d"/>
      <use xlink:href="#DejaVuSans-41" transform="translate(86.279297 0)"/>
      <use xlink:href="#DejaVuSans-45" transform="translate(154.6875 0)"/>
      <use xlink:href="#DejaVuSans-20" transform="translate(217.871094 0)"/>
      <use xlink:href="#DejaVuSans-28" transform="translate(249.658203 0)"/>
      <use xlink:href="#DejaVuSans-6d" transform="translate(288.671875 0)"/>
      <use xlink:href="#DejaVuSans-6d" transform="translate(386.083984 0)"/>
      <use xlink:href="#DejaVuSans-29" transform="translate(483.496094 0)"/>
     </g>
    </g>
   </g>
   <g id="patch_28">
    <path d="M 399.277612 135.553846 
L 399.277612 39.6 
" style="fill: none; stroke: #000000; stroke-width: 0.6; stroke-linejoin: miter; stroke-linecap: square"/>
   </g>
   <g id="patch_29">
    <path d="M 482.561194 135.553846 
L 482.561194 39.6 
" style="fill: none; stroke: #000000; stroke-width: 0.6; stroke-linejoin: miter; stroke-linecap: square"/>
   </g>
   <g id="patch_30">
    <path d="M 399.277612 135.553846 
L 482.561194 135.553846 
" style="fill: none; stroke: #000000; stroke-width: 0.6; stroke-linejoin: miter; stroke-linecap: square"/>
   </g>
   <g id="patch_31">
    <path d="M 399.277612 39.6 
L 482.561194 39.6 
" style="fill: none; stroke: #000000; stroke-width: 0.6; stroke-linejoin: miter; stroke-linecap: square"/>
   </g>
   <g id="text_43">
    <!-- d -->
    <g transform="translate(387.61791 42.960894) scale(0.12 -0.12)">
     <defs>
      <path id="DejaVuSans-Bold-64" d="M 2919 2988 
L 2919 4863 
L 4044 4863 
L 4044 0 
L 2919 0 
L 2919 506 
Q 2688 197 2409 53 
Q 2131 -91 1766 -91 
Q 1119 -91 703 423 
Q 288 938 288 1747 
Q 288 2556 703 3070 
Q 1119 3584 1766 3584 
Q 2128 3584 2408 3439 
Q 2688 3294 2919 2988 
z
M 2181 722 
Q 2541 722 2730 984 
Q 2919 1247 2919 1747 
Q 2919 2247 2730 2509 
Q 2541 2772 2181 2772 
Q 1825 2772 1636 2509 
Q 1447 2247 1447 1747 
Q 1447 1247 1636 984 
Q 1825 722 2181 722 
z
" transform="scale(0.015625)"/>
     </defs>
     <use xlink:href="#DejaVuSans-Bold-64"/>
    </g>
   </g>
   <g id="text_44">
    <!-- 9.27 -->
    <g transform="translate(402.080364 42.505481) scale(0.08 -0.08)">
     <use xlink:href="#DejaVuSans-39"/>
     <use xlink:href="#DejaVuSans-2e" transform="translate(63.623047 0)"/>
     <use xlink:href="#DejaVuSans-32" transform="translate(95.410156 0)"/>
     <use xlink:href="#DejaVuSans-37" transform="translate(159.033203 0)"/>
    </g>
   </g>
   <g id="text_45">
    <!-- 1.78 -->
    <g transform="translate(446.099171 116.357116) scale(0.08 -0.08)">
     <use xlink:href="#DejaVuSans-31"/>
     <use xlink:href="#DejaVuSans-2e" transform="translate(63.623047 0)"/>
     <use xlink:href="#DejaVuSans-37" transform="translate(95.410156 0)"/>
     <use xlink:href="#DejaVuSans-38" transform="translate(159.033203 0)"/>
    </g>
   </g>
   <g id="text_46">
    <!-- 9.03 -->
    <g transform="translate(417.927135 44.875256) scale(0.08 -0.08)">
     <defs>
      <path id="DejaVuSans-33" d="M 2597 2516 
Q 3050 2419 3304 2112 
Q 3559 1806 3559 1356 
Q 3559 666 3084 287 
Q 2609 -91 1734 -91 
Q 1441 -91 1130 -33 
Q 819 25 488 141 
L 488 750 
Q 750 597 1062 519 
Q 1375 441 1716 441 
Q 2309 441 2620 675 
Q 2931 909 2931 1356 
Q 2931 1769 2642 2001 
Q 2353 2234 1838 2234 
L 1294 2234 
L 1294 2753 
L 1863 2753 
Q 2328 2753 2575 2939 
Q 2822 3125 2822 3475 
Q 2822 3834 2567 4026 
Q 2313 4219 1838 4219 
Q 1578 4219 1281 4162 
Q 984 4106 628 3988 
L 628 4550 
Q 988 4650 1302 4700 
Q 1616 4750 1894 4750 
Q 2613 4750 3031 4423 
Q 3450 4097 3450 3541 
Q 3450 3153 3228 2886 
Q 3006 2619 2597 2516 
z
" transform="scale(0.015625)"/>
     </defs>
     <use xlink:href="#DejaVuSans-39"/>
     <use xlink:href="#DejaVuSans-2e" transform="translate(63.623047 0)"/>
     <use xlink:href="#DejaVuSans-30" transform="translate(95.410156 0)"/>
     <use xlink:href="#DejaVuSans-33" transform="translate(159.033203 0)"/>
    </g>
   </g>
   <g id="text_47">
    <!-- 2.14 -->
    <g transform="translate(461.945941 112.760486) scale(0.08 -0.08)">
     <use xlink:href="#DejaVuSans-32"/>
     <use xlink:href="#DejaVuSans-2e" transform="translate(63.623047 0)"/>
     <use xlink:href="#DejaVuSans-31" transform="translate(95.410156 0)"/>
     <use xlink:href="#DejaVuSans-34" transform="translate(159.033203 0)"/>
    </g>
   </g>
   <g id="text_48">
    <!-- MAE (↓, mm) (with vs no) -->
    <g transform="translate(389.270653 33.6) scale(0.08 -0.08)">
     <defs>
      <path id="DejaVuSans-76" d="M 191 3500 
L 800 3500 
L 1894 563 
L 2988 3500 
L 3597 3500 
L 2284 0 
L 1503 0 
L 191 3500 
z
" transform="scale(0.015625)"/>
     </defs>
     <use xlink:href="#DejaVuSans-4d"/>
     <use xlink:href="#DejaVuSans-41" transform="translate(86.279297 0)"/>
     <use xlink:href="#DejaVuSans-45" transform="translate(154.6875 0)"/>
     <use xlink:href="#DejaVuSans-20" transform="translate(217.871094 0)"/>
     <use xlink:href="#DejaVuSans-28" transform="translate(249.658203 0)"/>
     <use xlink:href="#DejaVuSans-2193" transform="translate(288.671875 0)"/>
     <use xlink:href="#DejaVuSans-2c" transform="translate(372.460938 0)"/>
     <use xlink:href="#DejaVuSans-20" transform="translate(404.248047 0)"/>
     <use xlink:href="#DejaVuSans-6d" transform="translate(436.035156 0)"/>
     <use xlink:href="#DejaVuSans-6d" transform="translate(533.447266 0)"/>
     <use xlink:href="#DejaVuSans-29" transform="translate(630.859375 0)"/>
     <use xlink:href="#DejaVuSans-20" transform="translate(669.873047 0)"/>
     <use xlink:href="#DejaVuSans-28" transform="translate(701.660156 0)"/>
     <use xlink:href="#DejaVuSans-77" transform="translate(740.673828 0)"/>
     <use xlink:href="#DejaVuSans-69" transform="translate(822.460938 0)"/>
     <use xlink:href="#DejaVuSans-74" transform="translate(850.244141 0)"/>
     <use xlink:href="#DejaVuSans-68" transform="translate(889.453125 0)"/>
     <use xlink:href="#DejaVuSans-20" transform="translate(952.832031 0)"/>
     <use xlink:href="#DejaVuSans-76" transform="translate(984.619141 0)"/>
     <use xlink:href="#DejaVuSans-73" transform="translate(1043.798828 0)"/>
     <use xlink:href="#DejaVuSans-20" transform="translate(1095.898438 0)"/>
     <use xlink:href="#DejaVuSans-6e" transform="translate(1127.685547 0)"/>
     <use xlink:href="#DejaVuSans-6f" transform="translate(1191.064453 0)"/>
     <use xlink:href="#DejaVuSans-29" transform="translate(1252.246094 0)"/>
    </g>
   </g>
  </g>
  <g id="axes_5">
   <g id="patch_32">
    <path d="M 399.277612 289.08 
L 482.561194 289.08 
L 482.561194 193.126154 
L 399.277612 193.126154 
z
" style="fill: #ffffff"/>
   </g>
   <g id="patch_33">
    <path d="M 403.063229 289.08 
L 418.91 289.08 
L 418.91 197.695385 
L 403.063229 197.695385 
z
" clip-path="url(#pb3d3cca6ec)" style="fill: #1f78b4"/>
   </g>
   <g id="patch_34">
    <path d="M 447.082036 289.08 
L 462.928806 289.08 
L 462.928806 286.444158 
L 447.082036 286.444158 
z
" clip-path="url(#pb3d3cca6ec)" style="fill: #e31a1c"/>
   </g>
   <g id="patch_35">
    <path d="M 418.91 289.08 
L 434.75677 289.08 
L 434.75677 206.293026 
L 418.91 206.293026 
z
" clip-path="url(#pb3d3cca6ec)" style="fill: url(#hea3811fdf4); stroke: #000000; stroke-linejoin: miter"/>
   </g>
   <g id="patch_36">
    <path d="M 462.928806 289.08 
L 478.775577 289.08 
L 478.775577 283.383966 
L 462.928806 283.383966 
z
" clip-path="url(#pb3d3cca6ec)" style="fill: url(#hea3811fdf4); stroke: #000000; stroke-linejoin: miter"/>
   </g>
   <g id="matplotlib.axis_9">
    <g id="xtick_9">
     <g id="line2d_32">
      <g>
       <use xlink:href="#me04f3b39d0" x="418.91" y="289.08" style="stroke: #000000; stroke-width: 0.6"/>
      </g>
     </g>
     <g id="text_49">
      <!-- Nansha -->
      <g transform="translate(403.86125 302.15875) scale(0.08 -0.08)">
       <use xlink:href="#DejaVuSans-4e"/>
       <use xlink:href="#DejaVuSans-61" transform="translate(74.804688 0)"/>
       <use xlink:href="#DejaVuSans-6e" transform="translate(136.083984 0)"/>
       <use xlink:href="#DejaVuSans-73" transform="translate(199.462891 0)"/>
       <use xlink:href="#DejaVuSans-68" transform="translate(251.5625 0)"/>
       <use xlink:href="#DejaVuSans-61" transform="translate(314.941406 0)"/>
      </g>
     </g>
    </g>
    <g id="xtick_10">
     <g id="line2d_33">
      <g>
       <use xlink:href="#me04f3b39d0" x="462.928806" y="289.08" style="stroke: #000000; stroke-width: 0.6"/>
      </g>
     </g>
     <g id="text_50">
      <!-- Zhongshan -->
      <g transform="translate(440.526931 302.15875) scale(0.08 -0.08)">
       <use xlink:href="#DejaVuSans-5a"/>
       <use xlink:href="#DejaVuSans-68" transform="translate(68.505859 0)"/>
       <use xlink:href="#DejaVuSans-6f" transform="translate(131.884766 0)"/>
       <use xlink:href="#DejaVuSans-6e" transform="translate(193.066406 0)"/>
       <use xlink:href="#DejaVuSans-67" transform="translate(256.445312 0)"/>
       <use xlink:href="#DejaVuSans-73" transform="translate(319.921875 0)"/>
       <use xlink:href="#DejaVuSans-68" transform="translate(372.021484 0)"/>
       <use xlink:href="#DejaVuSans-61" transform="translate(435.400391 0)"/>
       <use xlink:href="#DejaVuSans-6e" transform="translate(496.679688 0)"/>
      </g>
     </g>
    </g>
   </g>
   <g id="matplotlib.axis_10">
    <g id="ytick_19">
     <g id="line2d_34">
      <path d="M 399.277612 289.08 
L 482.561194 289.08 
" clip-path="url(#pb3d3cca6ec)" style="fill: none; stroke: #b0b0b0; stroke-opacity: 0.2; stroke-width: 0.8; stroke-linecap: square"/>
     </g>
     <g id="line2d_35">
      <g>
       <use xlink:href="#mf06beb2fec" x="399.277612" y="289.08" style="stroke: #000000; stroke-width: 0.6"/>
      </g>
     </g>
     <g id="text_51">
      <!-- 0 -->
      <g transform="translate(387.187612 292.119375) scale(0.08 -0.08)">
       <use xlink:href="#DejaVuSans-30"/>
      </g>
     </g>
    </g>
    <g id="ytick_20">
     <g id="line2d_36">
      <path d="M 399.277612 254.263346 
L 482.561194 254.263346 
" clip-path="url(#pb3d3cca6ec)" style="fill: none; stroke: #b0b0b0; stroke-opacity: 0.2; stroke-width: 0.8; stroke-linecap: square"/>
     </g>
     <g id="line2d_37">
      <g>
       <use xlink:href="#mf06beb2fec" x="399.277612" y="254.263346" style="stroke: #000000; stroke-width: 0.6"/>
      </g>
     </g>
     <g id="text_52">
      <!-- 100 -->
      <g transform="translate(377.007612 257.302721) scale(0.08 -0.08)">
       <use xlink:href="#DejaVuSans-31"/>
       <use xlink:href="#DejaVuSans-30" transform="translate(63.623047 0)"/>
       <use xlink:href="#DejaVuSans-30" transform="translate(127.246094 0)"/>
      </g>
     </g>
    </g>
    <g id="ytick_21">
     <g id="line2d_38">
      <path d="M 399.277612 219.446691 
L 482.561194 219.446691 
" clip-path="url(#pb3d3cca6ec)" style="fill: none; stroke: #b0b0b0; stroke-opacity: 0.2; stroke-width: 0.8; stroke-linecap: square"/>
     </g>
     <g id="line2d_39">
      <g>
       <use xlink:href="#mf06beb2fec" x="399.277612" y="219.446691" style="stroke: #000000; stroke-width: 0.6"/>
      </g>
     </g>
     <g id="text_53">
      <!-- 200 -->
      <g transform="translate(377.007612 222.486066) scale(0.08 -0.08)">
       <use xlink:href="#DejaVuSans-32"/>
       <use xlink:href="#DejaVuSans-30" transform="translate(63.623047 0)"/>
       <use xlink:href="#DejaVuSans-30" transform="translate(127.246094 0)"/>
      </g>
     </g>
    </g>
    <g id="text_54">
     <!-- MSE (mm²) -->
     <g transform="translate(371.343862 263.409952) rotate(-90) scale(0.08 -0.08)">
      <use xlink:href="#DejaVuSans-4d"/>
      <use xlink:href="#DejaVuSans-53" transform="translate(86.279297 0)"/>
      <use xlink:href="#DejaVuSans-45" transform="translate(149.755859 0)"/>
      <use xlink:href="#DejaVuSans-20" transform="translate(212.939453 0)"/>
      <use xlink:href="#DejaVuSans-28" transform="translate(244.726562 0)"/>
      <use xlink:href="#DejaVuSans-6d" transform="translate(283.740234 0)"/>
      <use xlink:href="#DejaVuSans-6d" transform="translate(381.152344 0)"/>
      <use xlink:href="#DejaVuSans-b2" transform="translate(478.564453 0)"/>
      <use xlink:href="#DejaVuSans-29" transform="translate(518.652344 0)"/>
     </g>
    </g>
   </g>
   <g id="patch_37">
    <path d="M 399.277612 289.08 
L 399.277612 193.126154 
" style="fill: none; stroke: #000000; stroke-width: 0.6; stroke-linejoin: miter; stroke-linecap: square"/>
   </g>
   <g id="patch_38">
    <path d="M 482.561194 289.08 
L 482.561194 193.126154 
" style="fill: none; stroke: #000000; stroke-width: 0.6; stroke-linejoin: miter; stroke-linecap: square"/>
   </g>
   <g id="patch_39">
    <path d="M 399.277612 289.08 
L 482.561194 289.08 
" style="fill: none; stroke: #000000; stroke-width: 0.6; stroke-linejoin: miter; stroke-linecap: square"/>
   </g>
   <g id="patch_40">
    <path d="M 399.277612 193.126154 
L 482.561194 193.126154 
" style="fill: none; stroke: #000000; stroke-width: 0.6; stroke-linejoin: miter; stroke-linecap: square"/>
   </g>
   <g id="text_55">
    <!-- e -->
    <g transform="translate(387.61791 196.487048) scale(0.12 -0.12)">
     <defs>
      <path id="DejaVuSans-Bold-65" d="M 4031 1759 
L 4031 1441 
L 1416 1441 
Q 1456 1047 1700 850 
Q 1944 653 2381 653 
Q 2734 653 3104 758 
Q 3475 863 3866 1075 
L 3866 213 
Q 3469 63 3072 -14 
Q 2675 -91 2278 -91 
Q 1328 -91 801 392 
Q 275 875 275 1747 
Q 275 2603 792 3093 
Q 1309 3584 2216 3584 
Q 3041 3584 3536 3087 
Q 4031 2591 4031 1759 
z
M 2881 2131 
Q 2881 2450 2695 2645 
Q 2509 2841 2209 2841 
Q 1884 2841 1681 2658 
Q 1478 2475 1428 2131 
L 2881 2131 
z
" transform="scale(0.015625)"/>
     </defs>
     <use xlink:href="#DejaVuSans-Bold-65"/>
    </g>
   </g>
   <g id="text_56">
    <!-- 262.47 -->
    <g transform="translate(396.990364 196.031635) scale(0.08 -0.08)">
     <use xlink:href="#DejaVuSans-32"/>
     <use xlink:href="#DejaVuSans-36" transform="translate(63.623047 0)"/>
     <use xlink:href="#DejaVuSans-32" transform="translate(127.246094 0)"/>
     <use xlink:href="#DejaVuSans-2e" transform="translate(190.869141 0)"/>
     <use xlink:href="#DejaVuSans-34" transform="translate(222.65625 0)"/>
     <use xlink:href="#DejaVuSans-37" transform="translate(286.279297 0)"/>
    </g>
   </g>
   <g id="text_57">
    <!-- 7.57 -->
    <g transform="translate(446.099171 284.780408) scale(0.08 -0.08)">
     <use xlink:href="#DejaVuSans-37"/>
     <use xlink:href="#DejaVuSans-2e" transform="translate(63.623047 0)"/>
     <use xlink:href="#DejaVuSans-35" transform="translate(95.410156 0)"/>
     <use xlink:href="#DejaVuSans-37" transform="translate(159.033203 0)"/>
    </g>
   </g>
   <g id="text_58">
    <!-- 237.78 -->
    <g transform="translate(412.837135 204.629276) scale(0.08 -0.08)">
     <use xlink:href="#DejaVuSans-32"/>
     <use xlink:href="#DejaVuSans-33" transform="translate(63.623047 0)"/>
     <use xlink:href="#DejaVuSans-37" transform="translate(127.246094 0)"/>
     <use xlink:href="#DejaVuSans-2e" transform="translate(190.869141 0)"/>
     <use xlink:href="#DejaVuSans-37" transform="translate(222.65625 0)"/>
     <use xlink:href="#DejaVuSans-38" transform="translate(286.279297 0)"/>
    </g>
   </g>
   <g id="text_59">
    <!-- 16.36 -->
    <g transform="translate(459.400941 281.720216) scale(0.08 -0.08)">
     <use xlink:href="#DejaVuSans-31"/>
     <use xlink:href="#DejaVuSans-36" transform="translate(63.623047 0)"/>
     <use xlink:href="#DejaVuSans-2e" transform="translate(127.246094 0)"/>
     <use xlink:href="#DejaVuSans-33" transform="translate(159.033203 0)"/>
     <use xlink:href="#DejaVuSans-36" transform="translate(222.65625 0)"/>
    </g>
   </g>
   <g id="text_60">
    <!-- MSE (↓, mm²) (with vs no) -->
    <g transform="translate(387.863778 187.126154) scale(0.08 -0.08)">
     <use xlink:href="#DejaVuSans-4d"/>
     <use xlink:href="#DejaVuSans-53" transform="translate(86.279297 0)"/>
     <use xlink:href="#DejaVuSans-45" transform="translate(149.755859 0)"/>
     <use xlink:href="#DejaVuSans-20" transform="translate(212.939453 0)"/>
     <use xlink:href="#DejaVuSans-28" transform="translate(244.726562 0)"/>
     <use xlink:href="#DejaVuSans-2193" transform="translate(283.740234 0)"/>
     <use xlink:href="#DejaVuSans-2c" transform="translate(367.529297 0)"/>
     <use xlink:href="#DejaVuSans-20" transform="translate(399.316406 0)"/>
     <use xlink:href="#DejaVuSans-6d" transform="translate(431.103516 0)"/>
     <use xlink:href="#DejaVuSans-6d" transform="translate(528.515625 0)"/>
     <use xlink:href="#DejaVuSans-b2" transform="translate(625.927734 0)"/>
     <use xlink:href="#DejaVuSans-29" transform="translate(666.015625 0)"/>
     <use xlink:href="#DejaVuSans-20" transform="translate(705.029297 0)"/>
     <use xlink:href="#DejaVuSans-28" transform="translate(736.816406 0)"/>
     <use xlink:href="#DejaVuSans-77" transform="translate(775.830078 0)"/>
     <use xlink:href="#DejaVuSans-69" transform="translate(857.617188 0)"/>
     <use xlink:href="#DejaVuSans-74" transform="translate(885.400391 0)"/>
     <use xlink:href="#DejaVuSans-68" transform="translate(924.609375 0)"/>
     <use xlink:href="#DejaVuSans-20" transform="translate(987.988281 0)"/>
     <use xlink:href="#DejaVuSans-76" transform="translate(1019.775391 0)"/>
     <use xlink:href="#DejaVuSans-73" transform="translate(1078.955078 0)"/>
     <use xlink:href="#DejaVuSans-20" transform="translate(1131.054688 0)"/>
     <use xlink:href="#DejaVuSans-6e" transform="translate(1162.841797 0)"/>
     <use xlink:href="#DejaVuSans-6f" transform="translate(1226.220703 0)"/>
     <use xlink:href="#DejaVuSans-29" transform="translate(1287.402344 0)"/>
    </g>
   </g>
  </g>
  <g id="axes_6">
   <g id="patch_41">
    <path d="M 557.516418 135.553846 
L 640.8 135.553846 
L 640.8 39.6 
L 557.516418 39.6 
z
" style="fill: #ffffff"/>
   </g>
   <g id="patch_42">
    <path d="M 561.302035 135.553846 
L 577.148806 135.553846 
L 577.148806 49.096318 
L 561.302035 49.096318 
z
" clip-path="url(#p76c13fd975)" style="fill: #1f78b4"/>
   </g>
   <g id="patch_43">
    <path d="M 605.320842 135.553846 
L 621.167612 135.553846 
L 621.167612 55.026207 
L 605.320842 55.026207 
z
" clip-path="url(#p76c13fd975)" style="fill: #e31a1c"/>
   </g>
   <g id="patch_44">
    <path d="M 577.148806 135.553846 
L 592.995576 135.553846 
L 592.995576 50.408198 
L 577.148806 50.408198 
z
" clip-path="url(#p76c13fd975)" style="fill: url(#hea3811fdf4); stroke: #000000; stroke-linejoin: miter"/>
   </g>
   <g id="patch_45">
    <path d="M 621.167612 135.553846 
L 637.014383 135.553846 
L 637.014383 44.169231 
L 621.167612 44.169231 
z
" clip-path="url(#p76c13fd975)" style="fill: url(#hea3811fdf4); stroke: #000000; stroke-linejoin: miter"/>
   </g>
   <g id="matplotlib.axis_11">
    <g id="xtick_11">
     <g id="line2d_40">
      <g>
       <use xlink:href="#me04f3b39d0" x="577.148806" y="135.553846" style="stroke: #000000; stroke-width: 0.6"/>
      </g>
     </g>
     <g id="text_61">
      <!-- Nansha -->
      <g transform="translate(562.100056 148.632596) scale(0.08 -0.08)">
       <use xlink:href="#DejaVuSans-4e"/>
       <use xlink:href="#DejaVuSans-61" transform="translate(74.804688 0)"/>
       <use xlink:href="#DejaVuSans-6e" transform="translate(136.083984 0)"/>
       <use xlink:href="#DejaVuSans-73" transform="translate(199.462891 0)"/>
       <use xlink:href="#DejaVuSans-68" transform="translate(251.5625 0)"/>
       <use xlink:href="#DejaVuSans-61" transform="translate(314.941406 0)"/>
      </g>
     </g>
    </g>
    <g id="xtick_12">
     <g id="line2d_41">
      <g>
       <use xlink:href="#me04f3b39d0" x="621.167612" y="135.553846" style="stroke: #000000; stroke-width: 0.6"/>
      </g>
     </g>
     <g id="text_62">
      <!-- Zhongshan -->
      <g transform="translate(598.765737 148.632596) scale(0.08 -0.08)">
       <use xlink:href="#DejaVuSans-5a"/>
       <use xlink:href="#DejaVuSans-68" transform="translate(68.505859 0)"/>
       <use xlink:href="#DejaVuSans-6f" transform="translate(131.884766 0)"/>
       <use xlink:href="#DejaVuSans-6e" transform="translate(193.066406 0)"/>
       <use xlink:href="#DejaVuSans-67" transform="translate(256.445312 0)"/>
       <use xlink:href="#DejaVuSans-73" transform="translate(319.921875 0)"/>
       <use xlink:href="#DejaVuSans-68" transform="translate(372.021484 0)"/>
       <use xlink:href="#DejaVuSans-61" transform="translate(435.400391 0)"/>
       <use xlink:href="#DejaVuSans-6e" transform="translate(496.679688 0)"/>
      </g>
     </g>
    </g>
   </g>
   <g id="matplotlib.axis_12">
    <g id="ytick_22">
     <g id="line2d_42">
      <path d="M 557.516418 135.553846 
L 640.8 135.553846 
" clip-path="url(#p76c13fd975)" style="fill: none; stroke: #b0b0b0; stroke-opacity: 0.2; stroke-width: 0.8; stroke-linecap: square"/>
     </g>
     <g id="line2d_43">
      <g>
       <use xlink:href="#mf06beb2fec" x="557.516418" y="135.553846" style="stroke: #000000; stroke-width: 0.6"/>
      </g>
     </g>
     <g id="text_63">
      <!-- 0.0 -->
      <g transform="translate(537.793918 138.593221) scale(0.08 -0.08)">
       <use xlink:href="#DejaVuSans-30"/>
       <use xlink:href="#DejaVuSans-2e" transform="translate(63.623047 0)"/>
       <use xlink:href="#DejaVuSans-30" transform="translate(95.410156 0)"/>
      </g>
     </g>
    </g>
    <g id="ytick_23">
     <g id="line2d_44">
      <path d="M 557.516418 115.563664 
L 640.8 115.563664 
" clip-path="url(#p76c13fd975)" style="fill: none; stroke: #b0b0b0; stroke-opacity: 0.2; stroke-width: 0.8; stroke-linecap: square"/>
     </g>
     <g id="line2d_45">
      <g>
       <use xlink:href="#mf06beb2fec" x="557.516418" y="115.563664" style="stroke: #000000; stroke-width: 0.6"/>
      </g>
     </g>
     <g id="text_64">
      <!-- 0.2 -->
      <g transform="translate(537.793918 118.603039) scale(0.08 -0.08)">
       <use xlink:href="#DejaVuSans-30"/>
       <use xlink:href="#DejaVuSans-2e" transform="translate(63.623047 0)"/>
       <use xlink:href="#DejaVuSans-32" transform="translate(95.410156 0)"/>
      </g>
     </g>
    </g>
    <g id="ytick_24">
     <g id="line2d_46">
      <path d="M 557.516418 95.573481 
L 640.8 95.573481 
" clip-path="url(#p76c13fd975)" style="fill: none; stroke: #b0b0b0; stroke-opacity: 0.2; stroke-width: 0.8; stroke-linecap: square"/>
     </g>
     <g id="line2d_47">
      <g>
       <use xlink:href="#mf06beb2fec" x="557.516418" y="95.573481" style="stroke: #000000; stroke-width: 0.6"/>
      </g>
     </g>
     <g id="text_65">
      <!-- 0.4 -->
      <g transform="translate(537.793918 98.612856) scale(0.08 -0.08)">
       <use xlink:href="#DejaVuSans-30"/>
       <use xlink:href="#DejaVuSans-2e" transform="translate(63.623047 0)"/>
       <use xlink:href="#DejaVuSans-34" transform="translate(95.410156 0)"/>
      </g>
     </g>
    </g>
    <g id="ytick_25">
     <g id="line2d_48">
      <path d="M 557.516418 75.583299 
L 640.8 75.583299 
" clip-path="url(#p76c13fd975)" style="fill: none; stroke: #b0b0b0; stroke-opacity: 0.2; stroke-width: 0.8; stroke-linecap: square"/>
     </g>
     <g id="line2d_49">
      <g>
       <use xlink:href="#mf06beb2fec" x="557.516418" y="75.583299" style="stroke: #000000; stroke-width: 0.6"/>
      </g>
     </g>
     <g id="text_66">
      <!-- 0.6 -->
      <g transform="translate(537.793918 78.622674) scale(0.08 -0.08)">
       <use xlink:href="#DejaVuSans-30"/>
       <use xlink:href="#DejaVuSans-2e" transform="translate(63.623047 0)"/>
       <use xlink:href="#DejaVuSans-36" transform="translate(95.410156 0)"/>
      </g>
     </g>
    </g>
    <g id="ytick_26">
     <g id="line2d_50">
      <path d="M 557.516418 55.593116 
L 640.8 55.593116 
" clip-path="url(#p76c13fd975)" style="fill: none; stroke: #b0b0b0; stroke-opacity: 0.2; stroke-width: 0.8; stroke-linecap: square"/>
     </g>
     <g id="line2d_51">
      <g>
       <use xlink:href="#mf06beb2fec" x="557.516418" y="55.593116" style="stroke: #000000; stroke-width: 0.6"/>
      </g>
     </g>
     <g id="text_67">
      <!-- 0.8 -->
      <g transform="translate(537.793918 58.632491) scale(0.08 -0.08)">
       <use xlink:href="#DejaVuSans-30"/>
       <use xlink:href="#DejaVuSans-2e" transform="translate(63.623047 0)"/>
       <use xlink:href="#DejaVuSans-38" transform="translate(95.410156 0)"/>
      </g>
     </g>
    </g>
    <g id="text_68">
     <!-- Coverage -->
     <g transform="translate(532.130168 106.742548) rotate(-90) scale(0.08 -0.08)">
      <use xlink:href="#DejaVuSans-43"/>
      <use xlink:href="#DejaVuSans-6f" transform="translate(69.824219 0)"/>
      <use xlink:href="#DejaVuSans-76" transform="translate(131.005859 0)"/>
      <use xlink:href="#DejaVuSans-65" transform="translate(190.185547 0)"/>
      <use xlink:href="#DejaVuSans-72" transform="translate(251.708984 0)"/>
      <use xlink:href="#DejaVuSans-61" transform="translate(292.822266 0)"/>
      <use xlink:href="#DejaVuSans-67" transform="translate(354.101562 0)"/>
      <use xlink:href="#DejaVuSans-65" transform="translate(417.578125 0)"/>
     </g>
    </g>
   </g>
   <g id="patch_46">
    <path d="M 557.516418 135.553846 
L 557.516418 39.6 
" style="fill: none; stroke: #000000; stroke-width: 0.6; stroke-linejoin: miter; stroke-linecap: square"/>
   </g>
   <g id="patch_47">
    <path d="M 640.8 135.553846 
L 640.8 39.6 
" style="fill: none; stroke: #000000; stroke-width: 0.6; stroke-linejoin: miter; stroke-linecap: square"/>
   </g>
   <g id="patch_48">
    <path d="M 557.516418 135.553846 
L 640.8 135.553846 
" style="fill: none; stroke: #000000; stroke-width: 0.6; stroke-linejoin: miter; stroke-linecap: square"/>
   </g>
   <g id="patch_49">
    <path d="M 557.516418 39.6 
L 640.8 39.6 
" style="fill: none; stroke: #000000; stroke-width: 0.6; stroke-linejoin: miter; stroke-linecap: square"/>
   </g>
   <g id="text_69">
    <!-- f -->
    <g transform="translate(545.856716 42.960894) scale(0.12 -0.12)">
     <defs>
      <path id="DejaVuSans-Bold-66" d="M 2841 4863 
L 2841 4128 
L 2222 4128 
Q 1984 4128 1890 4042 
Q 1797 3956 1797 3744 
L 1797 3500 
L 2753 3500 
L 2753 2700 
L 1797 2700 
L 1797 0 
L 678 0 
L 678 2700 
L 122 2700 
L 122 3500 
L 678 3500 
L 678 3744 
Q 678 4316 997 4589 
Q 1316 4863 1984 4863 
L 2841 4863 
z
" transform="scale(0.015625)"/>
     </defs>
     <use xlink:href="#DejaVuSans-Bold-66"/>
    </g>
   </g>
   <g id="text_70">
    <!-- 0.865 -->
    <g transform="translate(557.77417 47.432568) scale(0.08 -0.08)">
     <use xlink:href="#DejaVuSans-30"/>
     <use xlink:href="#DejaVuSans-2e" transform="translate(63.623047 0)"/>
     <use xlink:href="#DejaVuSans-38" transform="translate(95.410156 0)"/>
     <use xlink:href="#DejaVuSans-36" transform="translate(159.033203 0)"/>
     <use xlink:href="#DejaVuSans-35" transform="translate(222.65625 0)"/>
    </g>
   </g>
   <g id="text_71">
    <!-- 0.806 -->
    <g transform="translate(601.792977 53.362457) scale(0.08 -0.08)">
     <use xlink:href="#DejaVuSans-30"/>
     <use xlink:href="#DejaVuSans-2e" transform="translate(63.623047 0)"/>
     <use xlink:href="#DejaVuSans-38" transform="translate(95.410156 0)"/>
     <use xlink:href="#DejaVuSans-30" transform="translate(159.033203 0)"/>
     <use xlink:href="#DejaVuSans-36" transform="translate(222.65625 0)"/>
    </g>
   </g>
   <g id="text_72">
    <!-- 0.852 -->
    <g transform="translate(573.620941 48.744448) scale(0.08 -0.08)">
     <use xlink:href="#DejaVuSans-30"/>
     <use xlink:href="#DejaVuSans-2e" transform="translate(63.623047 0)"/>
     <use xlink:href="#DejaVuSans-38" transform="translate(95.410156 0)"/>
     <use xlink:href="#DejaVuSans-35" transform="translate(159.033203 0)"/>
     <use xlink:href="#DejaVuSans-32" transform="translate(222.65625 0)"/>
    </g>
   </g>
   <g id="text_73">
    <!-- 0.914 -->
    <g transform="translate(617.639747 42.505481) scale(0.08 -0.08)">
     <use xlink:href="#DejaVuSans-30"/>
     <use xlink:href="#DejaVuSans-2e" transform="translate(63.623047 0)"/>
     <use xlink:href="#DejaVuSans-39" transform="translate(95.410156 0)"/>
     <use xlink:href="#DejaVuSans-31" transform="translate(159.033203 0)"/>
     <use xlink:href="#DejaVuSans-34" transform="translate(222.65625 0)"/>
    </g>
   </g>
   <g id="text_74">
    <!-- Coverage (@80) (↑) -->
    <g transform="translate(558.765709 33.6) scale(0.08 -0.08)">
     <defs>
      <path id="DejaVuSans-40" d="M 2381 1678 
Q 2381 1231 2603 976 
Q 2825 722 3213 722 
Q 3597 722 3817 978 
Q 4038 1234 4038 1678 
Q 4038 2116 3813 2373 
Q 3588 2631 3206 2631 
Q 2828 2631 2604 2375 
Q 2381 2119 2381 1678 
z
M 4084 744 
Q 3897 503 3655 389 
Q 3413 275 3091 275 
Q 2553 275 2217 664 
Q 1881 1053 1881 1678 
Q 1881 2303 2218 2693 
Q 2556 3084 3091 3084 
Q 3413 3084 3656 2967 
Q 3900 2850 4084 2613 
L 4084 3022 
L 4531 3022 
L 4531 722 
Q 4988 791 5245 1139 
Q 5503 1488 5503 2041 
Q 5503 2375 5404 2669 
Q 5306 2963 5106 3213 
Q 4781 3622 4314 3839 
Q 3847 4056 3297 4056 
Q 2913 4056 2559 3954 
Q 2206 3853 1906 3653 
Q 1416 3334 1139 2817 
Q 863 2300 863 1697 
Q 863 1200 1042 765 
Q 1222 331 1563 0 
Q 1891 -325 2322 -495 
Q 2753 -666 3244 -666 
Q 3647 -666 4036 -530 
Q 4425 -394 4750 -141 
L 5031 -488 
Q 4641 -791 4180 -952 
Q 3719 -1113 3244 -1113 
Q 2666 -1113 2153 -908 
Q 1641 -703 1241 -313 
Q 841 78 631 592 
Q 422 1106 422 1697 
Q 422 2266 634 2781 
Q 847 3297 1241 3688 
Q 1644 4084 2172 4295 
Q 2700 4506 3291 4506 
Q 3953 4506 4520 4234 
Q 5088 3963 5472 3463 
Q 5706 3156 5829 2797 
Q 5953 2438 5953 2053 
Q 5953 1231 5456 756 
Q 4959 281 4084 263 
L 4084 744 
z
" transform="scale(0.015625)"/>
     </defs>
     <use xlink:href="#DejaVuSans-43"/>
     <use xlink:href="#DejaVuSans-6f" transform="translate(69.824219 0)"/>
     <use xlink:href="#DejaVuSans-76" transform="translate(131.005859 0)"/>
     <use xlink:href="#DejaVuSans-65" transform="translate(190.185547 0)"/>
     <use xlink:href="#DejaVuSans-72" transform="translate(251.708984 0)"/>
     <use xlink:href="#DejaVuSans-61" transform="translate(292.822266 0)"/>
     <use xlink:href="#DejaVuSans-67" transform="translate(354.101562 0)"/>
     <use xlink:href="#DejaVuSans-65" transform="translate(417.578125 0)"/>
     <use xlink:href="#DejaVuSans-20" transform="translate(479.101562 0)"/>
     <use xlink:href="#DejaVuSans-28" transform="translate(510.888672 0)"/>
     <use xlink:href="#DejaVuSans-40" transform="translate(549.902344 0)"/>
     <use xlink:href="#DejaVuSans-38" transform="translate(649.902344 0)"/>
     <use xlink:href="#DejaVuSans-30" transform="translate(713.525391 0)"/>
     <use xlink:href="#DejaVuSans-29" transform="translate(777.148438 0)"/>
     <use xlink:href="#DejaVuSans-20" transform="translate(816.162109 0)"/>
     <use xlink:href="#DejaVuSans-28" transform="translate(847.949219 0)"/>
     <use xlink:href="#DejaVuSans-2191" transform="translate(886.962891 0)"/>
     <use xlink:href="#DejaVuSans-29" transform="translate(970.751953 0)"/>
    </g>
   </g>
  </g>
  <g id="axes_7">
   <g id="patch_50">
    <path d="M 557.516418 289.08 
L 640.8 289.08 
L 640.8 193.126154 
L 557.516418 193.126154 
z
" style="fill: #ffffff"/>
   </g>
   <g id="patch_51">
    <path d="M 561.302035 289.08 
L 577.148806 289.08 
L 577.148806 197.695385 
L 561.302035 197.695385 
z
" clip-path="url(#p289d219e51)" style="fill: #1f78b4"/>
   </g>
   <g id="patch_52">
    <path d="M 605.320842 289.08 
L 621.167612 289.08 
L 621.167612 279.289512 
L 605.320842 279.289512 
z
" clip-path="url(#p289d219e51)" style="fill: #e31a1c"/>
   </g>
   <g id="patch_53">
    <path d="M 577.148806 289.08 
L 592.995576 289.08 
L 592.995576 202.193026 
L 577.148806 202.193026 
z
" clip-path="url(#p289d219e51)" style="fill: url(#hea3811fdf4); stroke: #000000; stroke-linejoin: miter"/>
   </g>
   <g id="patch_54">
    <path d="M 621.167612 289.08 
L 637.014383 289.08 
L 637.014383 260.151885 
L 621.167612 260.151885 
z
" clip-path="url(#p289d219e51)" style="fill: url(#hea3811fdf4); stroke: #000000; stroke-linejoin: miter"/>
   </g>
   <g id="matplotlib.axis_13">
    <g id="xtick_13">
     <g id="line2d_52">
      <g>
       <use xlink:href="#me04f3b39d0" x="577.148806" y="289.08" style="stroke: #000000; stroke-width: 0.6"/>
      </g>
     </g>
     <g id="text_75">
      <!-- Nansha -->
      <g transform="translate(562.100056 302.15875) scale(0.08 -0.08)">
       <use xlink:href="#DejaVuSans-4e"/>
       <use xlink:href="#DejaVuSans-61" transform="translate(74.804688 0)"/>
       <use xlink:href="#DejaVuSans-6e" transform="translate(136.083984 0)"/>
       <use xlink:href="#DejaVuSans-73" transform="translate(199.462891 0)"/>
       <use xlink:href="#DejaVuSans-68" transform="translate(251.5625 0)"/>
       <use xlink:href="#DejaVuSans-61" transform="translate(314.941406 0)"/>
      </g>
     </g>
    </g>
    <g id="xtick_14">
     <g id="line2d_53">
      <g>
       <use xlink:href="#me04f3b39d0" x="621.167612" y="289.08" style="stroke: #000000; stroke-width: 0.6"/>
      </g>
     </g>
     <g id="text_76">
      <!-- Zhongshan -->
      <g transform="translate(598.765737 302.15875) scale(0.08 -0.08)">
       <use xlink:href="#DejaVuSans-5a"/>
       <use xlink:href="#DejaVuSans-68" transform="translate(68.505859 0)"/>
       <use xlink:href="#DejaVuSans-6f" transform="translate(131.884766 0)"/>
       <use xlink:href="#DejaVuSans-6e" transform="translate(193.066406 0)"/>
       <use xlink:href="#DejaVuSans-67" transform="translate(256.445312 0)"/>
       <use xlink:href="#DejaVuSans-73" transform="translate(319.921875 0)"/>
       <use xlink:href="#DejaVuSans-68" transform="translate(372.021484 0)"/>
       <use xlink:href="#DejaVuSans-61" transform="translate(435.400391 0)"/>
       <use xlink:href="#DejaVuSans-6e" transform="translate(496.679688 0)"/>
      </g>
     </g>
    </g>
   </g>
   <g id="matplotlib.axis_14">
    <g id="ytick_27">
     <g id="line2d_54">
      <path d="M 557.516418 289.08 
L 640.8 289.08 
" clip-path="url(#p289d219e51)" style="fill: none; stroke: #b0b0b0; stroke-opacity: 0.2; stroke-width: 0.8; stroke-linecap: square"/>
     </g>
     <g id="line2d_55">
      <g>
       <use xlink:href="#mf06beb2fec" x="557.516418" y="289.08" style="stroke: #000000; stroke-width: 0.6"/>
      </g>
     </g>
     <g id="text_77">
      <!-- 0 -->
      <g transform="translate(545.426418 292.119375) scale(0.08 -0.08)">
       <use xlink:href="#DejaVuSans-30"/>
      </g>
     </g>
    </g>
    <g id="ytick_28">
     <g id="line2d_56">
      <path d="M 557.516418 261.455936 
L 640.8 261.455936 
" clip-path="url(#p289d219e51)" style="fill: none; stroke: #b0b0b0; stroke-opacity: 0.2; stroke-width: 0.8; stroke-linecap: square"/>
     </g>
     <g id="line2d_57">
      <g>
       <use xlink:href="#mf06beb2fec" x="557.516418" y="261.455936" style="stroke: #000000; stroke-width: 0.6"/>
      </g>
     </g>
     <g id="text_78">
      <!-- 10 -->
      <g transform="translate(540.336418 264.495311) scale(0.08 -0.08)">
       <use xlink:href="#DejaVuSans-31"/>
       <use xlink:href="#DejaVuSans-30" transform="translate(63.623047 0)"/>
      </g>
     </g>
    </g>
    <g id="ytick_29">
     <g id="line2d_58">
      <path d="M 557.516418 233.831871 
L 640.8 233.831871 
" clip-path="url(#p289d219e51)" style="fill: none; stroke: #b0b0b0; stroke-opacity: 0.2; stroke-width: 0.8; stroke-linecap: square"/>
     </g>
     <g id="line2d_59">
      <g>
       <use xlink:href="#mf06beb2fec" x="557.516418" y="233.831871" style="stroke: #000000; stroke-width: 0.6"/>
      </g>
     </g>
     <g id="text_79">
      <!-- 20 -->
      <g transform="translate(540.336418 236.871246) scale(0.08 -0.08)">
       <use xlink:href="#DejaVuSans-32"/>
       <use xlink:href="#DejaVuSans-30" transform="translate(63.623047 0)"/>
      </g>
     </g>
    </g>
    <g id="ytick_30">
     <g id="line2d_60">
      <path d="M 557.516418 206.207807 
L 640.8 206.207807 
" clip-path="url(#p289d219e51)" style="fill: none; stroke: #b0b0b0; stroke-opacity: 0.2; stroke-width: 0.8; stroke-linecap: square"/>
     </g>
     <g id="line2d_61">
      <g>
       <use xlink:href="#mf06beb2fec" x="557.516418" y="206.207807" style="stroke: #000000; stroke-width: 0.6"/>
      </g>
     </g>
     <g id="text_80">
      <!-- 30 -->
      <g transform="translate(540.336418 209.247182) scale(0.08 -0.08)">
       <use xlink:href="#DejaVuSans-33"/>
       <use xlink:href="#DejaVuSans-30" transform="translate(63.623047 0)"/>
      </g>
     </g>
    </g>
    <g id="text_81">
     <!-- Sharpness (mm) -->
     <g transform="translate(534.672668 274.161202) rotate(-90) scale(0.08 -0.08)">
      <use xlink:href="#DejaVuSans-53"/>
      <use xlink:href="#DejaVuSans-68" transform="translate(63.476562 0)"/>
      <use xlink:href="#DejaVuSans-61" transform="translate(126.855469 0)"/>
      <use xlink:href="#DejaVuSans-72" transform="translate(188.134766 0)"/>
      <use xlink:href="#DejaVuSans-70" transform="translate(229.248047 0)"/>
      <use xlink:href="#DejaVuSans-6e" transform="translate(292.724609 0)"/>
      <use xlink:href="#DejaVuSans-65" transform="translate(356.103516 0)"/>
      <use xlink:href="#DejaVuSans-73" transform="translate(417.626953 0)"/>
      <use xlink:href="#DejaVuSans-73" transform="translate(469.726562 0)"/>
      <use xlink:href="#DejaVuSans-20" transform="translate(521.826172 0)"/>
      <use xlink:href="#DejaVuSans-28" transform="translate(553.613281 0)"/>
      <use xlink:href="#DejaVuSans-6d" transform="translate(592.626953 0)"/>
      <use xlink:href="#DejaVuSans-6d" transform="translate(690.039062 0)"/>
      <use xlink:href="#DejaVuSans-29" transform="translate(787.451172 0)"/>
     </g>
    </g>
   </g>
   <g id="patch_55">
    <path d="M 557.516418 289.08 
L 557.516418 193.126154 
" style="fill: none; stroke: #000000; stroke-width: 0.6; stroke-linejoin: miter; stroke-linecap: square"/>
   </g>
   <g id="patch_56">
    <path d="M 640.8 289.08 
L 640.8 193.126154 
" style="fill: none; stroke: #000000; stroke-width: 0.6; stroke-linejoin: miter; stroke-linecap: square"/>
   </g>
   <g id="patch_57">
    <path d="M 557.516418 289.08 
L 640.8 289.08 
" style="fill: none; stroke: #000000; stroke-width: 0.6; stroke-linejoin: miter; stroke-linecap: square"/>
   </g>
   <g id="patch_58">
    <path d="M 557.516418 193.126154 
L 640.8 193.126154 
" style="fill: none; stroke: #000000; stroke-width: 0.6; stroke-linejoin: miter; stroke-linecap: square"/>
   </g>
   <g id="text_82">
    <!-- g -->
    <g transform="translate(545.856716 196.393298) scale(0.12 -0.12)">
     <defs>
      <path id="DejaVuSans-Bold-67" d="M 2919 594 
Q 2688 288 2409 144 
Q 2131 0 1766 0 
Q 1125 0 706 504 
Q 288 1009 288 1791 
Q 288 2575 706 3076 
Q 1125 3578 1766 3578 
Q 2131 3578 2409 3434 
Q 2688 3291 2919 2981 
L 2919 3500 
L 4044 3500 
L 4044 353 
Q 4044 -491 3511 -936 
Q 2978 -1381 1966 -1381 
Q 1638 -1381 1331 -1331 
Q 1025 -1281 716 -1178 
L 716 -306 
Q 1009 -475 1290 -558 
Q 1572 -641 1856 -641 
Q 2406 -641 2662 -400 
Q 2919 -159 2919 353 
L 2919 594 
z
M 2181 2772 
Q 1834 2772 1640 2515 
Q 1447 2259 1447 1791 
Q 1447 1309 1634 1061 
Q 1822 813 2181 813 
Q 2531 813 2725 1069 
Q 2919 1325 2919 1791 
Q 2919 2259 2725 2515 
Q 2531 2772 2181 2772 
z
" transform="scale(0.015625)"/>
     </defs>
     <use xlink:href="#DejaVuSans-Bold-67"/>
    </g>
   </g>
   <g id="text_83">
    <!-- 33.082 -->
    <g transform="translate(555.22917 196.031635) scale(0.08 -0.08)">
     <use xlink:href="#DejaVuSans-33"/>
     <use xlink:href="#DejaVuSans-33" transform="translate(63.623047 0)"/>
     <use xlink:href="#DejaVuSans-2e" transform="translate(127.246094 0)"/>
     <use xlink:href="#DejaVuSans-30" transform="translate(159.033203 0)"/>
     <use xlink:href="#DejaVuSans-38" transform="translate(222.65625 0)"/>
     <use xlink:href="#DejaVuSans-32" transform="translate(286.279297 0)"/>
    </g>
   </g>
   <g id="text_84">
    <!-- 3.544 -->
    <g transform="translate(601.792977 277.625762) scale(0.08 -0.08)">
     <use xlink:href="#DejaVuSans-33"/>
     <use xlink:href="#DejaVuSans-2e" transform="translate(63.623047 0)"/>
     <use xlink:href="#DejaVuSans-35" transform="translate(95.410156 0)"/>
     <use xlink:href="#DejaVuSans-34" transform="translate(159.033203 0)"/>
     <use xlink:href="#DejaVuSans-34" transform="translate(222.65625 0)"/>
    </g>
   </g>
   <g id="text_85">
    <!-- 31.453 -->
    <g transform="translate(571.075941 200.529276) scale(0.08 -0.08)">
     <use xlink:href="#DejaVuSans-33"/>
     <use xlink:href="#DejaVuSans-31" transform="translate(63.623047 0)"/>
     <use xlink:href="#DejaVuSans-2e" transform="translate(127.246094 0)"/>
     <use xlink:href="#DejaVuSans-34" transform="translate(159.033203 0)"/>
     <use xlink:href="#DejaVuSans-35" transform="translate(222.65625 0)"/>
     <use xlink:href="#DejaVuSans-33" transform="translate(286.279297 0)"/>
    </g>
   </g>
   <g id="text_86">
    <!-- 10.472 -->
    <g transform="translate(615.094747 258.488135) scale(0.08 -0.08)">
     <use xlink:href="#DejaVuSans-31"/>
     <use xlink:href="#DejaVuSans-30" transform="translate(63.623047 0)"/>
     <use xlink:href="#DejaVuSans-2e" transform="translate(127.246094 0)"/>
     <use xlink:href="#DejaVuSans-34" transform="translate(159.033203 0)"/>
     <use xlink:href="#DejaVuSans-37" transform="translate(222.65625 0)"/>
     <use xlink:href="#DejaVuSans-32" transform="translate(286.279297 0)"/>
    </g>
   </g>
   <g id="text_87">
    <!-- Sharpness (@80) (↓, mm) -->
    <g transform="translate(546.723209 187.126154) scale(0.08 -0.08)">
     <use xlink:href="#DejaVuSans-53"/>
     <use xlink:href="#DejaVuSans-68" transform="translate(63.476562 0)"/>
     <use xlink:href="#DejaVuSans-61" transform="translate(126.855469 0)"/>
     <use xlink:href="#DejaVuSans-72" transform="translate(188.134766 0)"/>
     <use xlink:href="#DejaVuSans-70" transform="translate(229.248047 0)"/>
     <use xlink:href="#DejaVuSans-6e" transform="translate(292.724609 0)"/>
     <use xlink:href="#DejaVuSans-65" transform="translate(356.103516 0)"/>
     <use xlink:href="#DejaVuSans-73" transform="translate(417.626953 0)"/>
     <use xlink:href="#DejaVuSans-73" transform="translate(469.726562 0)"/>
     <use xlink:href="#DejaVuSans-20" transform="translate(521.826172 0)"/>
     <use xlink:href="#DejaVuSans-28" transform="translate(553.613281 0)"/>
     <use xlink:href="#DejaVuSans-40" transform="translate(592.626953 0)"/>
     <use xlink:href="#DejaVuSans-38" transform="translate(692.626953 0)"/>
     <use xlink:href="#DejaVuSans-30" transform="translate(756.25 0)"/>
     <use xlink:href="#DejaVuSans-29" transform="translate(819.873047 0)"/>
     <use xlink:href="#DejaVuSans-20" transform="translate(858.886719 0)"/>
     <use xlink:href="#DejaVuSans-28" transform="translate(890.673828 0)"/>
     <use xlink:href="#DejaVuSans-2193" transform="translate(929.6875 0)"/>
     <use xlink:href="#DejaVuSans-2c" transform="translate(1013.476562 0)"/>
     <use xlink:href="#DejaVuSans-20" transform="translate(1045.263672 0)"/>
     <use xlink:href="#DejaVuSans-6d" transform="translate(1077.050781 0)"/>
     <use xlink:href="#DejaVuSans-6d" transform="translate(1174.462891 0)"/>
     <use xlink:href="#DejaVuSans-29" transform="translate(1271.875 0)"/>
    </g>
   </g>
  </g>
  <g id="text_88">
   <!-- Fig. 3 — Core &amp; ablation -->
   <g transform="translate(7.2 14.4945) scale(0.096 -0.096)">
    <defs>
     <path id="DejaVuSans-46" d="M 628 4666 
L 3309 4666 
L 3309 4134 
L 1259 4134 
L 1259 2759 
L 3109 2759 
L 3109 2228 
L 1259 2228 
L 1259 0 
L 628 0 
L 628 4666 
z
" transform="scale(0.015625)"/>
     <path id="DejaVuSans-2014" d="M 313 1978 
L 6088 1978 
L 6088 1528 
L 313 1528 
L 313 1978 
z
" transform="scale(0.015625)"/>
     <path id="DejaVuSans-26" d="M 1556 2509 
Q 1272 2256 1139 2004 
Q 1006 1753 1006 1478 
Q 1006 1022 1337 719 
Q 1669 416 2169 416 
Q 2466 416 2725 514 
Q 2984 613 3213 813 
L 1556 2509 
z
M 1997 2859 
L 3584 1234 
Q 3769 1513 3872 1830 
Q 3975 2147 3994 2503 
L 4575 2503 
Q 4538 2091 4375 1687 
Q 4213 1284 3922 891 
L 4794 0 
L 4006 0 
L 3559 459 
Q 3234 181 2878 45 
Q 2522 -91 2113 -91 
Q 1359 -91 881 339 
Q 403 769 403 1441 
Q 403 1841 612 2192 
Q 822 2544 1241 2853 
Q 1091 3050 1012 3245 
Q 934 3441 934 3628 
Q 934 4134 1281 4442 
Q 1628 4750 2203 4750 
Q 2463 4750 2720 4694 
Q 2978 4638 3244 4525 
L 3244 3956 
Q 2972 4103 2725 4179 
Q 2478 4256 2266 4256 
Q 1938 4256 1733 4082 
Q 1528 3909 1528 3634 
Q 1528 3475 1620 3314 
Q 1713 3153 1997 2859 
z
" transform="scale(0.015625)"/>
     <path id="DejaVuSans-62" d="M 3116 1747 
Q 3116 2381 2855 2742 
Q 2594 3103 2138 3103 
Q 1681 3103 1420 2742 
Q 1159 2381 1159 1747 
Q 1159 1113 1420 752 
Q 1681 391 2138 391 
Q 2594 391 2855 752 
Q 3116 1113 3116 1747 
z
M 1159 2969 
Q 1341 3281 1617 3432 
Q 1894 3584 2278 3584 
Q 2916 3584 3314 3078 
Q 3713 2572 3713 1747 
Q 3713 922 3314 415 
Q 2916 -91 2278 -91 
Q 1894 -91 1617 61 
Q 1341 213 1159 525 
L 1159 0 
L 581 0 
L 581 4863 
L 1159 4863 
L 1159 2969 
z
" transform="scale(0.015625)"/>
     <path id="DejaVuSans-6c" d="M 603 4863 
L 1178 4863 
L 1178 0 
L 603 0 
L 603 4863 
z
" transform="scale(0.015625)"/>
    </defs>
    <use xlink:href="#DejaVuSans-46"/>
    <use xlink:href="#DejaVuSans-69" transform="translate(50.269531 0)"/>
    <use xlink:href="#DejaVuSans-67" transform="translate(78.052734 0)"/>
    <use xlink:href="#DejaVuSans-2e" transform="translate(141.529297 0)"/>
    <use xlink:href="#DejaVuSans-20" transform="translate(173.316406 0)"/>
    <use xlink:href="#DejaVuSans-33" transform="translate(205.103516 0)"/>
    <use xlink:href="#DejaVuSans-20" transform="translate(268.726562 0)"/>
    <use xlink:href="#DejaVuSans-2014" transform="translate(300.513672 0)"/>
    <use xlink:href="#DejaVuSans-20" transform="translate(400.513672 0)"/>
    <use xlink:href="#DejaVuSans-43" transform="translate(432.300781 0)"/>
    <use xlink:href="#DejaVuSans-6f" transform="translate(502.125 0)"/>
    <use xlink:href="#DejaVuSans-72" transform="translate(563.306641 0)"/>
    <use xlink:href="#DejaVuSans-65" transform="translate(602.169922 0)"/>
    <use xlink:href="#DejaVuSans-20" transform="translate(663.693359 0)"/>
    <use xlink:href="#DejaVuSans-26" transform="translate(695.480469 0)"/>
    <use xlink:href="#DejaVuSans-20" transform="translate(773.458984 0)"/>
    <use xlink:href="#DejaVuSans-61" transform="translate(805.246094 0)"/>
    <use xlink:href="#DejaVuSans-62" transform="translate(866.525391 0)"/>
    <use xlink:href="#DejaVuSans-6c" transform="translate(930.001953 0)"/>
    <use xlink:href="#DejaVuSans-61" transform="translate(957.785156 0)"/>
    <use xlink:href="#DejaVuSans-74" transform="translate(1019.064453 0)"/>
    <use xlink:href="#DejaVuSans-69" transform="translate(1058.273438 0)"/>
    <use xlink:href="#DejaVuSans-6f" transform="translate(1086.056641 0)"/>
    <use xlink:href="#DejaVuSans-6e" transform="translate(1147.238281 0)"/>
   </g>
  </g>
  <g id="legend_1">
   <g id="patch_59">
    <path d="M 619.44625 20.47875 
L 635.44625 20.47875 
L 635.44625 14.87875 
L 619.44625 14.87875 
z
" style="fill: #1f78b4"/>
   </g>
   <g id="text_89">
    <!-- with physics -->
    <g transform="translate(641.84625 20.47875) scale(0.08 -0.08)">
     <use xlink:href="#DejaVuSans-77"/>
     <use xlink:href="#DejaVuSans-69" transform="translate(81.787109 0)"/>
     <use xlink:href="#DejaVuSans-74" transform="translate(109.570312 0)"/>
     <use xlink:href="#DejaVuSans-68" transform="translate(148.779297 0)"/>
     <use xlink:href="#DejaVuSans-20" transform="translate(212.158203 0)"/>
     <use xlink:href="#DejaVuSans-70" transform="translate(243.945312 0)"/>
     <use xlink:href="#DejaVuSans-68" transform="translate(307.421875 0)"/>
     <use xlink:href="#DejaVuSans-79" transform="translate(370.800781 0)"/>
     <use xlink:href="#DejaVuSans-73" transform="translate(429.980469 0)"/>
     <use xlink:href="#DejaVuSans-69" transform="translate(482.080078 0)"/>
     <use xlink:href="#DejaVuSans-63" transform="translate(509.863281 0)"/>
     <use xlink:href="#DejaVuSans-73" transform="translate(564.84375 0)"/>
    </g>
   </g>
   <g id="patch_60">
    <path d="M 619.44625 32.22125 
L 635.44625 32.22125 
L 635.44625 26.62125 
L 619.44625 26.62125 
z
" style="fill: url(#hea3811fdf4); stroke: #000000; stroke-linejoin: miter"/>
   </g>
   <g id="text_90">
    <!-- no physics -->
    <g transform="translate(641.84625 32.22125) scale(0.08 -0.08)">
     <use xlink:href="#DejaVuSans-6e"/>
     <use xlink:href="#DejaVuSans-6f" transform="translate(63.378906 0)"/>
     <use xlink:href="#DejaVuSans-20" transform="translate(124.560547 0)"/>
     <use xlink:href="#DejaVuSans-70" transform="translate(156.347656 0)"/>
     <use xlink:href="#DejaVuSans-68" transform="translate(219.824219 0)"/>
     <use xlink:href="#DejaVuSans-79" transform="translate(283.203125 0)"/>
     <use xlink:href="#DejaVuSans-73" transform="translate(342.382812 0)"/>
     <use xlink:href="#DejaVuSans-69" transform="translate(394.482422 0)"/>
     <use xlink:href="#DejaVuSans-63" transform="translate(422.265625 0)"/>
     <use xlink:href="#DejaVuSans-73" transform="translate(477.246094 0)"/>
    </g>
   </g>
  </g>
 </g>
 <defs>
  <clipPath id="p71f706a728">
   <rect x="82.8" y="39.6" width="83.283582" height="249.48"/>
  </clipPath>
  <clipPath id="pb1ab2c7a5f">
   <rect x="241.038806" y="39.6" width="83.283582" height="95.953846"/>
  </clipPath>
  <clipPath id="p394b172f10">
   <rect x="241.038806" y="193.126154" width="83.283582" height="95.953846"/>
  </clipPath>
  <clipPath id="pcdbf2dd676">
   <rect x="399.277612" y="39.6" width="83.283582" height="95.953846"/>
  </clipPath>
  <clipPath id="pb3d3cca6ec">
   <rect x="399.277612" y="193.126154" width="83.283582" height="95.953846"/>
  </clipPath>
  <clipPath id="p76c13fd975">
   <rect x="557.516418" y="39.6" width="83.283582" height="95.953846"/>
  </clipPath>
  <clipPath id="p289d219e51">
   <rect x="557.516418" y="193.126154" width="83.283582" height="95.953846"/>
  </clipPath>
 </defs>
 <defs>
  <pattern id="hea3811fdf4" patternUnits="userSpaceOnUse" x="0" y="0" width="72" height="72">
   <rect x="0" y="0" width="73" height="73" fill="none"/>
   <path d="M -36 36 
L 36 -36 
M -32 40 
L 40 -32 
M -28 44 
L 44 -28 
M -24 48 
L 48 -24 
M -20 52 
L 52 -20 
M -16 56 
L 56 -16 
M -12 60 
L 60 -12 
M -8 64 
L 64 -8 
M -4 68 
L 68 -4 
M 0 72 
L 72 0 
M 4 76 
L 76 4 
M 8 80 
L 80 8 
M 12 84 
L 84 12 
M 16 88 
L 88 16 
M 20 92 
L 92 20 
M 24 96 
L 96 24 
M 28 100 
L 100 28 
M 32 104 
L 104 32 
M 36 108 
L 108 36 
" style="fill: #000000; stroke: #000000; stroke-width: 1.0; stroke-linecap: butt; stroke-linejoin: miter"/>
  </pattern>
 </defs>
</svg>
