<?xml version="1.0" encoding="UTF-8"?>
<svg xmlns="http://www.w3.org/2000/svg" xmlns:xlink="http://www.w3.org/1999/xlink" viewBox="0 0 636.72 254.8">
  <defs>
    <style>
      .cls-1 {
        fill: url(#Super_Soft_Black_Vignette-13);
      }

      .cls-1, .cls-2, .cls-3, .cls-4, .cls-5, .cls-6, .cls-7, .cls-8, .cls-9, .cls-10, .cls-11, .cls-12, .cls-13, .cls-14, .cls-15, .cls-16, .cls-17, .cls-18, .cls-19, .cls-20 {
        stroke-miterlimit: 10;
      }

      .cls-1, .cls-3, .cls-4, .cls-5, .cls-6, .cls-8, .cls-10, .cls-11, .cls-13, .cls-14, .cls-16, .cls-17, .cls-18, .cls-20 {
        stroke: #f6921e;
      }

      .cls-1, .cls-3, .cls-4, .cls-5, .cls-6, .cls-8, .cls-10, .cls-11, .cls-13, .cls-14, .cls-17, .cls-18, .cls-20 {
        opacity: .5;
      }

      .cls-2 {
        fill: #f28620;
        stroke-width: 5px;
      }

      .cls-2, .cls-19 {
        stroke: #231f20;
      }

      .cls-3 {
        fill: url(#Super_Soft_Black_Vignette-11);
      }

      .cls-4 {
        fill: url(#Super_Soft_Black_Vignette-10);
      }

      .cls-5 {
        fill: url(#Super_Soft_Black_Vignette-9);
      }

      .cls-6 {
        fill: url(#Super_Soft_Black_Vignette-8);
      }

      .cls-7 {
        stroke-dasharray: 0 0 1 1;
      }

      .cls-7, .cls-9, .cls-12, .cls-15 {
        stroke: #fff;
      }

      .cls-7, .cls-12, .cls-15, .cls-19 {
        stroke-width: 3px;
      }

      .cls-7, .cls-15 {
        fill: none;
      }

      .cls-8 {
        fill: url(#Super_Soft_Black_Vignette-12);
      }

      .cls-9, .cls-16 {
        stroke-width: 2px;
      }

      .cls-9, .cls-19 {
        fill: #f6921e;
      }

      .cls-10 {
        fill: url(#Super_Soft_Black_Vignette-3);
      }

      .cls-11 {
        fill: url(#Super_Soft_Black_Vignette-7);
      }

      .cls-12, .cls-21 {
        fill: #2e3191;
      }

      .cls-13 {
        fill: url(#Super_Soft_Black_Vignette-4);
      }

      .cls-14 {
        fill: url(#Super_Soft_Black_Vignette-5);
      }

      .cls-21 {
        stroke-width: 0px;
      }

      .cls-16 {
        fill: #2b3c97;
        font-family: ComicSansMS-Bold, 'Comic Sans MS';
        font-size: 90px;
        font-weight: 700;
      }

      .cls-17 {
        fill: url(#Super_Soft_Black_Vignette-2);
      }

      .cls-18 {
        fill: url(#Super_Soft_Black_Vignette);
      }

      .cls-20 {
        fill: url(#Super_Soft_Black_Vignette-6);
      }
    </style>
    <radialGradient id="Super_Soft_Black_Vignette" data-name="Super Soft Black Vignette" cx="99.48" cy="108.09" fx="99.48" fy="108.09" r="31.24" gradientUnits="userSpaceOnUse">
      <stop offset=".57" stop-color="#130c0e" stop-opacity="0"/>
      <stop offset=".8" stop-color="#130c0e" stop-opacity=".65"/>
      <stop offset=".82" stop-color="#130c0e" stop-opacity=".7"/>
      <stop offset="1" stop-color="#130c0e" stop-opacity=".95"/>
    </radialGradient>
    <radialGradient id="Super_Soft_Black_Vignette-2" data-name="Super Soft Black Vignette" cx="-673.14" cy="1206.93" fx="-673.14" fy="1206.93" r="31.24" gradientTransform="translate(203.24 98.9) scale(.11 .1)" xlink:href="#Super_Soft_Black_Vignette"/>
    <radialGradient id="Super_Soft_Black_Vignette-3" data-name="Super Soft Black Vignette" cx="-730.41" cy="1238.17" fx="-730.41" fy="1238.17" r="31.24" gradientTransform="translate(203.24 98.9) scale(.11 .1)" xlink:href="#Super_Soft_Black_Vignette"/>
    <radialGradient id="Super_Soft_Black_Vignette-4" data-name="Super Soft Black Vignette" cx="-610.65" cy="1243.78" fx="-610.65" fy="1243.78" r="31.24" gradientTransform="translate(203.24 98.9) scale(.11 .1)" xlink:href="#Super_Soft_Black_Vignette"/>
    <radialGradient id="Super_Soft_Black_Vignette-5" data-name="Super Soft Black Vignette" cx="-704.38" cy="1275.02" fx="-704.38" fy="1275.02" r="31.24" gradientTransform="translate(203.24 98.9) scale(.11 .1)" xlink:href="#Super_Soft_Black_Vignette"/>
    <radialGradient id="Super_Soft_Black_Vignette-6" data-name="Super Soft Black Vignette" cx="-761.66" cy="1290.22" fx="-761.66" fy="1290.22" r="31.24" gradientTransform="translate(203.24 98.9) scale(.11 .1)" xlink:href="#Super_Soft_Black_Vignette"/>
    <radialGradient id="Super_Soft_Black_Vignette-7" data-name="Super Soft Black Vignette" cx="-834.12" cy="1160.49" fx="-834.12" fy="1160.49" r="31.24" gradientTransform="translate(203.24 98.9) scale(.11 .1)" xlink:href="#Super_Soft_Black_Vignette"/>
    <radialGradient id="Super_Soft_Black_Vignette-8" data-name="Super Soft Black Vignette" cx="-478.4" cy="1129.24" fx="-478.4" fy="1129.24" r="31.24" gradientTransform="translate(203.24 98.9) scale(.11 .1)" xlink:href="#Super_Soft_Black_Vignette"/>
    <radialGradient id="Super_Soft_Black_Vignette-9" data-name="Super Soft Black Vignette" cx="-478.4" cy="1160.49" fx="-478.4" fy="1160.49" r="31.24" gradientTransform="translate(203.24 98.9) scale(.11 .1)" xlink:href="#Super_Soft_Black_Vignette"/>
    <radialGradient id="Super_Soft_Black_Vignette-10" data-name="Super Soft Black Vignette" cx="-880.56" cy="1191.73" fx="-880.56" fy="1191.73" r="31.24" gradientTransform="translate(203.24 98.9) scale(.11 .1)" xlink:href="#Super_Soft_Black_Vignette"/>
    <radialGradient id="Super_Soft_Black_Vignette-11" data-name="Super Soft Black Vignette" cx="-580.59" cy="1168.6" fx="-580.59" fy="1168.6" r="31.24" gradientTransform="translate(237.12 43.49) scale(.17 .15)" xlink:href="#Super_Soft_Black_Vignette"/>
    <radialGradient id="Super_Soft_Black_Vignette-12" data-name="Super Soft Black Vignette" cx="-716.17" cy="1189.62" fx="-716.17" fy="1189.62" r="31.24" gradientTransform="translate(237.12 43.49) scale(.17 .15)" xlink:href="#Super_Soft_Black_Vignette"/>
    <radialGradient id="Super_Soft_Black_Vignette-13" data-name="Super Soft Black Vignette" cx="-764.93" cy="1214.41" fx="-764.93" fy="1214.41" gradientTransform="translate(237.12 43.49) scale(.17 .15)" xlink:href="#Super_Soft_Black_Vignette"/>
  </defs>
  <g id="l">
    <path class="cls-2" d="M110.48,25.38c-33.81,156.45-20.71,196.22-3.37,204.44,11.22,5.32,30.3.31,42.34-8.32,17.78-12.75,27.79-38.85,19.9-49.75-2.51-3.47-7.31-6.06-12.13-6.04-5.9.03-12.49,4-13.07,8.65-.75,6.06,9.29,8.53,9.77,14.57.76,9.69-23.27,26.69-36.87,20.8-24.15-10.47-13.79-92.44,1.41-144.22,4.92-16.78,10.33-30.3,14.3-39.43,0,0,0,0,0,0,.03-.08.09-.23.12-.31"/>
  </g>
  <g id="Layer_1" data-name="Layer 1">
    <text class="cls-16" transform="translate(196.7 164.33)"><tspan x="0" y="0">fusion-lab</tspan></text>
    <g>
      <path class="cls-21" d="M64.36,254.55c.76-4.59,1.94-11.38,3.56-19.56,4.2-21.26,9.18-45.96,20.08-75.29.8-2.16,8.63-23.05,17.85-39.08,4.49-7.82,9.67-15.44,9.67-15.44s3.82-5.64,7.11-9.94c19.58-25.64,46.81-33.78,46.81-33.78,7.55-2.26,23.31-5.98,42.08-2.81,11.01,1.86,16.5,4.93,20.14,1.63,3.58-3.25,3.28-11.06.59-15.84-8.32-14.76-46.39-12.47-73-3.07,0,0-40.77,14.39-69.24,57.19-4.83,7.27-9.59,15.95-9.59,15.95-7.44,15.01-12.77,27.91-16.38,37.34-12.53,32.65-19.79,70.98-21.83,80.81"/>
      <g>
        <path class="cls-15" d="M64.36,254.55c.03-.16.05-.32.08-.49"/>
        <path class="cls-7" d="M64.61,253.08c.76-4.52,1.86-10.74,3.31-18.08,4.2-21.26,9.18-45.96,20.08-75.29.8-2.16,8.63-23.05,17.85-39.08,4.49-7.82,9.67-15.44,9.67-15.44s3.82-5.64,7.11-9.94c19.58-25.64,46.81-33.78,46.81-33.78,7.55-2.26,23.31-5.98,42.08-2.81,11.01,1.86,16.5,4.93,20.14,1.63,3.58-3.25,3.28-11.06.59-15.84-8.32-14.76-46.39-12.47-73-3.07,0,0-40.77,14.39-69.24,57.19-4.83,7.27-9.59,15.95-9.59,15.95-7.44,15.01-12.77,27.91-16.38,37.34-12.15,31.65-19.34,68.65-21.63,79.83"/>
        <path class="cls-15" d="M42.3,232.18c-.03.17-.07.33-.1.49"/>
      </g>
    </g>
    <ellipse class="cls-19" cx="121.66" cy="25.51" rx="12.05" ry="3.97"/>
    <path class="cls-12" d="M88.8,112.16c-9.08-4.17-19.61-7.32-19.61-7.32-9.76-2.92-17.23-4.11-24.87-5.3-8.7-1.35-20.24-2.74-34.05-3.25,2.24-4.71,4.48-9.42,6.71-14.13,9.84,1.12,20.06,2.7,30.61,4.83,46.82,9.48,85.96,27.11,116.75,45.2-7.45,8.85-14.9,17.7-22.35,26.55-3.79-4.8-27.96-35-53.2-46.59Z"/>
  </g>
  <g id="circle">
    <circle class="cls-18" cx="99.48" cy="108.09" r="31.24"/>
    <ellipse class="cls-17" cx="127.92" cy="218.08" rx="3.5" ry="3.09"/>
    <ellipse class="cls-10" cx="121.51" cy="221.16" rx="3.5" ry="3.09"/>
    <ellipse class="cls-13" cx="134.91" cy="221.72" rx="3.5" ry="3.09"/>
    <ellipse class="cls-14" cx="124.42" cy="224.8" rx="3.5" ry="3.09"/>
    <ellipse class="cls-20" cx="118.01" cy="226.3" rx="3.5" ry="3.09"/>
    <ellipse class="cls-11" cx="109.9" cy="213.49" rx="3.5" ry="3.09"/>
    <ellipse class="cls-6" cx="149.71" cy="210.41" rx="3.5" ry="3.09"/>
    <ellipse class="cls-5" cx="149.71" cy="213.49" rx="3.5" ry="3.09"/>
    <ellipse class="cls-4" cx="104.71" cy="216.58" rx="3.5" ry="3.09"/>
    <ellipse class="cls-3" cx="140.56" cy="214.99" rx="5.2" ry="4.59"/>
    <ellipse class="cls-8" cx="118.01" cy="218.08" rx="5.2" ry="4.59"/>
    <ellipse class="cls-1" cx="109.9" cy="221.72" rx="5.2" ry="4.59"/>
    <circle class="cls-9" cx="97.48" cy="108.2" r="11.56"/>
  </g>
</svg>